<svg width="8" height="4" viewBox="0 0 8 4" fill="none" xmlns="http://www.w3.org/2000/svg">
<path d="M7.21044 0.0714111H0.781872C0.711246 0.0714262 0.642211 0.0923804 0.583493 0.131625C0.524776 0.170869 0.479012 0.226642 0.451987 0.291892C0.424962 0.357142 0.417889 0.428939 0.431663 0.498208C0.445437 0.567477 0.47944 0.631107 0.529372 0.681054L3.74366 3.89534C3.77681 3.92851 3.81617 3.95483 3.8595 3.97279C3.90282 3.99074 3.94926 3.99998 3.99616 3.99998C4.04306 3.99998 4.0895 3.99074 4.13282 3.97279C4.17615 3.95483 4.21551 3.92851 4.24866 3.89534L7.46294 0.681054C7.51288 0.631107 7.54688 0.567477 7.56065 0.498208C7.57443 0.428939 7.56735 0.357142 7.54033 0.291892C7.5133 0.226642 7.46754 0.170869 7.40882 0.131625C7.3501 0.0923804 7.28107 0.0714262 7.21044 0.0714111Z" fill="#919699"/>
</svg>
