<svg width="8" height="4" viewBox="0 0 8 4" fill="none" xmlns="http://www.w3.org/2000/svg">
<path d="M0.781872 3.92859H7.21044C7.28107 3.92857 7.3501 3.90762 7.40882 3.86837C7.46754 3.82913 7.5133 3.77335 7.54033 3.7081C7.56735 3.64285 7.57443 3.57106 7.56065 3.50179C7.54688 3.43252 7.51288 3.36889 7.46294 3.31894L4.24866 0.104655C4.21551 0.0714776 4.17615 0.0451577 4.13282 0.0272003C4.0895 0.00924288 4.04306 0 3.99616 0C3.94926 0 3.90282 0.00924288 3.85949 0.0272003C3.81617 0.0451577 3.77681 0.0714776 3.74366 0.104655L0.529372 3.31894C0.47944 3.36889 0.445437 3.43252 0.431663 3.50179C0.417889 3.57106 0.424962 3.64285 0.451987 3.7081C0.479012 3.77335 0.524776 3.82913 0.583493 3.86837C0.642211 3.90762 0.711246 3.92857 0.781872 3.92859Z" fill="#919699"/>
</svg>
