<svg width="16" height="16" viewBox="0 0 16 16" fill="none" xmlns="http://www.w3.org/2000/svg">
                  <path
                    d="M8.00004 11.8411C8.3596 11.8411 8.65108 11.5497 8.65108 11.1901C8.65108 10.8305 8.3596 10.5391 8.00004 10.5391C7.64048 10.5391 7.349 10.8305 7.349 11.1901C7.349 11.5497 7.64048 11.8411 8.00004 11.8411Z"
                    fill="#919699"
                  />
                  <path
                    d="M8.00004 1.3335C4.31556 1.3335 1.33337 4.31519 1.33337 8.00016C1.33337 11.6846 4.31507 14.6668 8.00004 14.6668C11.6845 14.6668 14.6667 11.6851 14.6667 8.00016C14.6667 4.31568 11.685 1.3335 8.00004 1.3335ZM8.00004 13.6252C4.89126 13.6252 2.37504 11.1094 2.37504 8.00016C2.37504 4.89139 4.89085 2.37516 8.00004 2.37516C11.1088 2.37516 13.625 4.89097 13.625 8.00016C13.625 11.1089 11.1092 13.6252 8.00004 13.6252Z"
                    fill="#919699"
                  />
                  <path
                    d="M8.00008 4.67969C6.85133 4.67969 5.91675 5.61427 5.91675 6.76302C5.91675 7.05068 6.14993 7.28385 6.43758 7.28385C6.72524 7.28385 6.95841 7.05068 6.95841 6.76302C6.95841 6.18865 7.42571 5.72135 8.00008 5.72135C8.57446 5.72135 9.04175 6.18865 9.04175 6.76302C9.04175 7.3374 8.57446 7.80469 8.00008 7.80469C7.71243 7.80469 7.47925 8.03786 7.47925 8.32552V9.6276C7.47925 9.91526 7.71243 10.1484 8.00008 10.1484C8.28774 10.1484 8.52091 9.91526 8.52091 9.6276V8.78044C9.41847 8.54859 10.0834 7.73201 10.0834 6.76302C10.0834 5.61427 9.14883 4.67969 8.00008 4.67969Z"
                    fill="#919699"
                  />
                </svg>