<svg width="24" height="24" viewBox="0 0 24 24" fill="none" xmlns="http://www.w3.org/2000/svg">
<g clip-path="url(#clip0_4308_4873)">
<mask id="mask0_4308_4873" style="mask-type:luminance" maskUnits="userSpaceOnUse" x="0" y="0" width="24" height="24">
<path d="M24 0H0V24H24V0Z" fill="white"/>
<path d="M19.0703 20.6563C19.0703 21.3035 18.5456 21.8281 17.8984 21.8281C17.2512 21.8281 16.7266 21.3035 16.7266 20.6563C16.7266 20.009 17.2512 19.4844 17.8984 19.4844C18.5456 19.4844 19.0703 20.009 19.0703 20.6563Z" fill="white"/>
<path d="M12.0391 20.6563C12.0391 21.3035 11.5144 21.8281 10.8672 21.8281C10.2199 21.8281 9.69531 21.3035 9.69531 20.6563C9.69531 20.009 10.2199 19.4844 10.8672 19.4844C11.5144 19.4844 12.0391 20.009 12.0391 20.6563Z" fill="white"/>
</mask>
<g mask="url(#mask0_4308_4873)">
<path fill-rule="evenodd" clip-rule="evenodd" d="M7.22159 17.3088C7.29996 17.6493 7.60307 17.8906 7.95248 17.8906H20.8133C21.1627 17.8906 21.4659 17.6493 21.5442 17.3088L23.7935 7.53601C23.8447 7.31335 23.7917 7.07948 23.6494 6.90071C23.5071 6.72195 23.2911 6.6178 23.0626 6.6178H5.70313C5.47465 6.6178 5.25863 6.72195 5.11633 6.90071C4.97404 7.07948 4.92099 7.31336 4.97224 7.53602L7.22159 17.3088ZM8.54946 16.3906L6.64536 8.1178H22.1204L20.2163 16.3906H8.54946Z" fill="#202C38"/>
<path fill-rule="evenodd" clip-rule="evenodd" d="M5.87126 8.09791C6.27492 8.00501 6.52684 7.60247 6.43394 7.1988L5.23089 1.97163C5.15252 1.63113 4.84941 1.38985 4.5 1.38985H0.9375C0.523286 1.38985 0.1875 1.72564 0.1875 2.13985C0.1875 2.55406 0.523286 2.88985 0.9375 2.88985H3.90301L4.97216 7.53524C5.06506 7.9389 5.4676 8.19082 5.87126 8.09791Z" fill="#202C38"/>
<path d="M19.0703 20.6563C19.0703 21.3035 18.5456 21.8281 17.8984 21.8281C17.2512 21.8281 16.7266 21.3035 16.7266 20.6563C16.7266 20.009 17.2512 19.4844 17.8984 19.4844C18.5456 19.4844 19.0703 20.009 19.0703 20.6563Z" fill="#202C38"/>
<path d="M12.0391 20.6563C12.0391 21.3035 11.5144 21.8281 10.8672 21.8281C10.2199 21.8281 9.69531 21.3035 9.69531 20.6563C9.69531 20.009 10.2199 19.4844 10.8672 19.4844C11.5144 19.4844 12.0391 20.009 12.0391 20.6563Z" fill="#202C38"/>
</g>
</g>
<defs>
<clipPath id="clip0_4308_4873">
<rect width="24" height="24" fill="white"/>
</clipPath>
</defs>
</svg>
