<svg width="16" height="16" viewBox="0 0 16 16" fill="none" xmlns="http://www.w3.org/2000/svg">
<path d="M7.99967 1.33333C4.32634 1.33333 1.33301 4.32666 1.33301 8C1.33301 11.6733 4.32634 14.6667 7.99967 14.6667C11.673 14.6667 14.6663 11.6733 14.6663 8C14.6663 4.32666 11.673 1.33333 7.99967 1.33333ZM11.1863 6.46666L7.40634 10.2467C7.31301 10.34 7.18634 10.3933 7.05301 10.3933C6.91967 10.3933 6.79301 10.34 6.69967 10.2467L4.81301 8.35999C4.61967 8.16666 4.61967 7.84666 4.81301 7.65333C5.00634 7.45999 5.32634 7.45999 5.51967 7.65333L7.05301 9.18666L10.4797 5.76C10.673 5.56666 10.993 5.56666 11.1863 5.76C11.3797 5.95333 11.3797 6.26666 11.1863 6.46666Z" fill="#1BB045"/>
</svg>
