<svg width="21" height="20" viewBox="0 0 21 20" fill="none" xmlns="http://www.w3.org/2000/svg">
<path d="M7.33301 4.29166C7.30286 4.29166 7.27158 4.27937 7.24594 4.25373C7.22029 4.22808 7.20801 4.1968 7.20801 4.16666V1.66666C7.20801 1.63651 7.22029 1.60523 7.24594 1.57958C7.27158 1.55394 7.30286 1.54166 7.33301 1.54166C7.36316 1.54166 7.39444 1.55394 7.42008 1.57958C7.44572 1.60523 7.45801 1.63651 7.45801 1.66666V4.16666C7.45801 4.1968 7.44572 4.22808 7.42008 4.25373C7.39444 4.27937 7.36316 4.29166 7.33301 4.29166Z" fill="#676E72" stroke="#676E72"/>
<path d="M13.999 4.29166C13.9689 4.29166 13.9376 4.27937 13.912 4.25373C13.8863 4.22808 13.874 4.1968 13.874 4.16666V1.66666C13.874 1.63651 13.8863 1.60523 13.912 1.57958C13.9376 1.55394 13.9689 1.54166 13.999 1.54166C14.0292 1.54166 14.0605 1.55394 14.0861 1.57958C14.1117 1.60523 14.124 1.63651 14.124 1.66666V4.16666C14.124 4.1968 14.1117 4.22808 14.0861 4.25373C14.0605 4.27937 14.0292 4.29166 13.999 4.29166Z" fill="#676E72" stroke="#676E72"/>
<path d="M17.7497 7.69998H3.58301C3.55286 7.69998 3.52158 7.6877 3.49594 7.66205C3.47029 7.63641 3.45801 7.60513 3.45801 7.57498C3.45801 7.54483 3.47029 7.51355 3.49594 7.48791C3.52158 7.46227 3.55286 7.44998 3.58301 7.44998H17.7497C17.7798 7.44998 17.8111 7.46227 17.8367 7.48791C17.8624 7.51355 17.8747 7.54483 17.8747 7.57498C17.8747 7.60513 17.8624 7.63641 17.8367 7.66205C17.8111 7.6877 17.7798 7.69998 17.7497 7.69998Z" fill="#676E72" stroke="#676E72"/>
<path d="M13.9993 18.9583H7.33268C4.29102 18.9583 2.54102 17.2083 2.54102 14.1667V7.08332C2.54102 4.04166 4.29102 2.29166 7.33268 2.29166H13.9993C17.041 2.29166 18.791 4.04166 18.791 7.08332V14.1667C18.791 17.2083 17.041 18.9583 13.9993 18.9583ZM7.33268 3.54166C4.94935 3.54166 3.79102 4.69999 3.79102 7.08332V14.1667C3.79102 16.55 4.94935 17.7083 7.33268 17.7083H13.9993C16.3827 17.7083 17.541 16.55 17.541 14.1667V7.08332C17.541 4.69999 16.3827 3.54166 13.9993 3.54166H7.33268Z" fill="#676E72"/>
<path d="M7.74935 12.0833C7.64102 12.0833 7.53268 12.0583 7.43268 12.0167C7.33268 11.975 7.24102 11.9167 7.15769 11.8417C7.08269 11.7583 7.02434 11.6667 6.98267 11.5667C6.941 11.4667 6.91602 11.3583 6.91602 11.25C6.91602 11.0333 7.00769 10.8167 7.15769 10.6583C7.24102 10.5833 7.33268 10.525 7.43268 10.4833C7.58268 10.4167 7.74936 10.4 7.91603 10.4333C7.96603 10.4417 8.01602 10.4583 8.06602 10.4833C8.11602 10.5 8.16601 10.525 8.21601 10.5583C8.25768 10.5917 8.29934 10.625 8.34101 10.6583C8.37434 10.7 8.416 10.7417 8.441 10.7833C8.47434 10.8333 8.49936 10.8833 8.51603 10.9333C8.54103 10.9833 8.55769 11.0333 8.56602 11.0833C8.57436 11.1417 8.58268 11.1917 8.58268 11.25C8.58268 11.4667 8.49101 11.6833 8.34101 11.8417C8.18268 11.9917 7.96602 12.0833 7.74935 12.0833Z" fill="#676E72"/>
<path d="M10.6663 12.0833C10.4497 12.0833 10.233 11.9916 10.0747 11.8416C10.0413 11.8 10.008 11.7583 9.97469 11.7167C9.94135 11.6667 9.91633 11.6167 9.89966 11.5667C9.87466 11.5167 9.858 11.4667 9.84967 11.4167C9.84133 11.3583 9.83301 11.3083 9.83301 11.25C9.83301 11.1417 9.858 11.0333 9.89966 10.9333C9.94133 10.8333 9.99968 10.7417 10.0747 10.6583C10.308 10.425 10.683 10.35 10.983 10.4833C11.0913 10.525 11.1747 10.5833 11.258 10.6583C11.408 10.8167 11.4997 11.0333 11.4997 11.25C11.4997 11.3083 11.4913 11.3583 11.483 11.4167C11.4747 11.4667 11.458 11.5167 11.433 11.5667C11.4164 11.6167 11.3913 11.6667 11.358 11.7167C11.3247 11.7583 11.2913 11.8 11.258 11.8416C11.1747 11.9166 11.0913 11.975 10.983 12.0167C10.883 12.0583 10.7747 12.0833 10.6663 12.0833Z" fill="#676E72"/>
<path d="M7.74935 15C7.64102 15 7.53268 14.975 7.43268 14.9334C7.33268 14.8917 7.24102 14.8333 7.15769 14.7583C7.08269 14.675 7.02434 14.5917 6.98267 14.4833C6.941 14.3833 6.91602 14.275 6.91602 14.1667C6.91602 13.95 7.00769 13.7333 7.15769 13.575C7.24102 13.5 7.33268 13.4417 7.43268 13.4C7.74101 13.2667 8.10768 13.3417 8.34101 13.575C8.37434 13.6167 8.416 13.6583 8.441 13.7C8.47434 13.75 8.49936 13.8 8.51603 13.85C8.54103 13.9 8.55769 13.95 8.56602 14.0083C8.57436 14.0583 8.58268 14.1167 8.58268 14.1667C8.58268 14.3833 8.49101 14.6 8.34101 14.7583C8.18268 14.9083 7.96602 15 7.74935 15Z" fill="#676E72"/>
</svg>
