<svg width="24" height="24" viewBox="0 0 24 24" xmlns="http://www.w3.org/2000/svg">
<path d="M11.6937 15.407C11.1219 15.407 10.6589 15.8835 10.6589 16.4554C10.6589 17.0137 11.1083 17.5039 11.6937 17.5039C12.2792 17.5039 12.7422 17.0137 12.7422 16.4554C12.7422 15.8835 12.2657 15.407 11.6937 15.407Z" fill="inherit"/>
<path d="M11.8708 7.46875C10.0327 7.46875 9.18848 8.55801 9.18848 9.29328C9.18848 9.82434 9.63777 10.0694 10.0054 10.0694C10.7407 10.0694 10.4411 9.02098 11.83 9.02098C12.5108 9.02098 13.0554 9.32055 13.0554 9.94687C13.0554 10.6822 12.2929 11.1043 11.8436 11.4855C11.4487 11.8259 10.9313 12.3842 10.9313 13.5552C10.9313 14.2632 11.1219 14.4674 11.6802 14.4674C12.3474 14.4674 12.4835 14.1679 12.4835 13.9092C12.4835 13.2011 12.4972 12.7927 13.2461 12.2072C13.6137 11.9212 14.7711 10.9954 14.7711 9.71543C14.7711 8.43551 13.6137 7.46875 11.8708 7.46875Z" fill="inherit"/>
<path d="M12 2C6.47328 2 2 6.47254 2 12V21.2188C2 21.6502 2.34977 22 2.78125 22H12C17.5267 22 22 17.5275 22 12C22 6.47328 17.5275 2 12 2ZM12 20.4375H3.5625V12C3.5625 7.33684 7.33621 3.5625 12 3.5625C16.6632 3.5625 20.4375 7.33621 20.4375 12C20.4375 16.6632 16.6638 20.4375 12 20.4375Z" fill="inherit"/>
</svg>
