<svg width="20" height="20" viewBox="0 0 20 20" fill="none" xmlns="http://www.w3.org/2000/svg">
<path d="M10.0001 19.0083C9.42508 19.0083 8.88341 18.7167 8.50008 18.2083L7.25008 16.5417C7.22508 16.5083 7.12508 16.4667 7.08342 16.4583H6.66675C3.19175 16.4583 1.04175 15.5167 1.04175 10.8333V6.66666C1.04175 2.98333 2.98341 1.04166 6.66675 1.04166H13.3334C17.0167 1.04166 18.9584 2.98333 18.9584 6.66666V10.8333C18.9584 14.5167 17.0167 16.4583 13.3334 16.4583H12.9167C12.8501 16.4583 12.7917 16.4917 12.7501 16.5417L11.5001 18.2083C11.1167 18.7167 10.5751 19.0083 10.0001 19.0083ZM6.66675 2.29166C3.68341 2.29166 2.29175 3.68333 2.29175 6.66666V10.8333C2.29175 14.6 3.58341 15.2083 6.66675 15.2083H7.08342C7.50842 15.2083 7.99175 15.45 8.25008 15.7917L9.50008 17.4583C9.79175 17.8417 10.2084 17.8417 10.5001 17.4583L11.7501 15.7917C12.0251 15.425 12.4584 15.2083 12.9167 15.2083H13.3334C16.3167 15.2083 17.7084 13.8167 17.7084 10.8333V6.66666C17.7084 3.68333 16.3167 2.29166 13.3334 2.29166H6.66675Z" fill="#919699"/>
<path d="M10.0001 10C9.53341 10 9.16675 9.625 9.16675 9.16667C9.16675 8.70833 9.54175 8.33333 10.0001 8.33333C10.4584 8.33333 10.8334 8.70833 10.8334 9.16667C10.8334 9.625 10.4667 10 10.0001 10Z" fill="#919699"/>
<path d="M13.3333 10C12.8667 10 12.5 9.625 12.5 9.16667C12.5 8.70833 12.875 8.33333 13.3333 8.33333C13.7917 8.33333 14.1667 8.70833 14.1667 9.16667C14.1667 9.625 13.8 10 13.3333 10Z" fill="#919699"/>
<path d="M6.66659 10C6.19992 10 5.83325 9.625 5.83325 9.16667C5.83325 8.70833 6.20825 8.33333 6.66659 8.33333C7.12492 8.33333 7.49992 8.70833 7.49992 9.16667C7.49992 9.625 7.13325 10 6.66659 10Z" fill="#919699"/>
</svg>
