<svg width="24" height="24" viewBox="0 0 24 24" fill="none" xmlns="http://www.w3.org/2000/svg">
<g clip-path="url(#clip0_168_87984)">
<path d="M18.1271 0.725062H17.0438C17.0438 0.324703 16.7192 0 16.3187 0H3.70773C3.30732 0 2.98267 0.324609 2.98267 0.725062V19.9953C2.98267 20.3957 3.30732 20.7203 3.70773 20.7203C17.4545 20.7203 16.3831 20.7626 16.6198 20.6542C16.8033 20.5702 16.9455 20.4121 17.0083 20.2182H18.127C18.1271 20.079 18.1271 0.996797 18.1271 0.725062Z" fill="#60B7FF"/>
<path d="M17.826 0H16.3187C16.7192 0 17.0438 0.324609 17.0438 0.725063V19.9953C17.0438 20.3957 16.7192 20.7203 16.3187 20.7203H17.826C18.2264 20.7203 18.5511 20.3957 18.5511 19.9953V0.725063C18.5511 0.324609 18.2264 0 17.826 0Z" fill="#26A6FE"/>
<path d="M18.5511 4.96697L15.2021 1.61798H5.11954C4.56604 1.61798 4.11731 2.06672 4.11731 2.62022V20.5402C4.11731 20.6018 4.12368 20.6618 4.13433 20.7203H17.826C18.2264 20.7203 18.5511 20.3957 18.5511 19.9953V4.96697Z" fill="#26A6FE"/>
<path d="M19.7387 5.15362L18.0393 4.09256L16.5722 1.61798H6.48966C5.93616 1.61798 5.48743 2.06672 5.48743 2.62022V20.5402C5.48743 21.0937 5.93616 21.5425 6.48966 21.5425H19.7192C19.7258 21.5425 19.7322 21.5416 19.7387 21.5415V5.15362Z" fill="#EAF6FF"/>
<path d="M20.7215 5.76725L19.2143 4.82614V20.5403C19.2143 21.0938 18.7655 21.5425 18.212 21.5425H19.7193C20.2728 21.5425 20.7215 21.0938 20.7215 20.5403V5.76725H20.7215Z" fill="#D8ECFE"/>
<path d="M17.5745 5.76726H20.7215L16.5723 1.61798V4.76503C16.5723 5.31853 17.021 5.76726 17.5745 5.76726Z" fill="#B3DAFE"/>
<path d="M18.3162 8.03845H7.89293C7.69268 8.03845 7.5304 7.87612 7.5304 7.67592C7.5304 7.47571 7.69268 7.31339 7.89293 7.31339H18.3162C18.5165 7.31339 18.6788 7.47571 18.6788 7.67592C18.6788 7.87612 18.5165 8.03845 18.3162 8.03845Z" fill="#82AEE3"/>
<path d="M18.3162 10.437H7.89293C7.69268 10.437 7.5304 10.2747 7.5304 10.0745C7.5304 9.8743 7.69268 9.71198 7.89293 9.71198H18.3162C18.5165 9.71198 18.6788 9.8743 18.6788 10.0745C18.6788 10.2747 18.5165 10.437 18.3162 10.437Z" fill="#82AEE3"/>
<path d="M22.2668 12H21.481C21.3128 11.7091 20.9984 11.5141 20.6438 11.5141C20.1465 11.5141 9.17261 11.5141 8.473 11.5141L7.20034 9.40843H6.42887C6.29336 9.22726 6.07928 9.11752 5.84856 9.11752H1.60726C1.20681 9.11752 0.882202 9.44218 0.882202 9.84259V23.0332C0.882202 23.5672 1.31505 24 1.84895 24H20.6438C20.8035 24 20.9658 23.9586 21.1094 23.8793H21.1112C21.2331 23.8118 21.3385 23.7185 21.4209 23.6072H22.2667L22.2668 12Z" fill="#FDB441"/>
<path d="M6.49106 9.50644L7.54157 11.5141H9.04884L7.99832 9.50644C7.87321 9.26734 7.62571 9.11752 7.3559 9.11752H5.84863C6.11845 9.11752 6.36595 9.26734 6.49106 9.50644Z" fill="#FEA613"/>
<path d="M22.1511 11.5141H20.6439C21.1779 11.5141 21.6107 11.9469 21.6107 12.4808V23.0332C21.6107 23.5672 21.1778 24 20.6439 24H22.1511C22.6851 24 23.1179 23.5671 23.1179 23.0332V12.4809C23.1179 11.9469 22.685 11.5141 22.1511 11.5141Z" fill="#FEA613"/>
</g>
<defs>
<clipPath id="clip0_168_87984">
<rect width="24" height="24" fill="white"/>
</clipPath>
</defs>
</svg>
