<svg width="16" height="16" viewBox="0 0 16 16" fill="#202C38" xmlns="http://www.w3.org/2000/svg">
<path d="M7.99967 14.4333C7.79301 14.4333 7.59301 14.4066 7.42634 14.3467C4.87967 13.4733 0.833008 10.3733 0.833008 5.79332C0.833008 3.45998 2.71967 1.56665 5.03967 1.56665C6.16634 1.56665 7.21967 2.00665 7.99967 2.79332C8.77967 2.00665 9.83301 1.56665 10.9597 1.56665C13.2797 1.56665 15.1663 3.46665 15.1663 5.79332C15.1663 10.38 11.1197 13.4733 8.57301 14.3467C8.40634 14.4066 8.20634 14.4333 7.99967 14.4333ZM5.03967 2.56665C3.27301 2.56665 1.83301 4.01332 1.83301 5.79332C1.83301 10.3466 6.21301 12.88 7.75301 13.4066C7.87301 13.4466 8.13301 13.4466 8.25301 13.4066C9.78634 12.88 14.173 10.3533 14.173 5.79332C14.173 4.01332 12.733 2.56665 10.9663 2.56665C9.95301 2.56665 9.01301 3.03998 8.40634 3.85998C8.21967 4.11332 7.79301 4.11332 7.60634 3.85998C6.98634 3.03332 6.05301 2.56665 5.03967 2.56665Z"/>
</svg>
