<svg width="24" height="24" viewBox="0 0 24 24" fill="none" xmlns="http://www.w3.org/2000/svg">
<path d="M10.4034 20.9269L10.3808 20.9043L10.3555 20.8848L7.72141 18.8505L8.02941 18.4521L10.7158 20.532C10.9225 20.72 11.2179 20.8522 11.4959 20.9382C11.7975 21.0314 12.1448 21.0905 12.4799 21.0905H16.2799C16.857 21.0905 17.4264 20.863 17.8748 20.5311C18.3156 20.2049 18.691 19.739 18.8303 19.2002L21.2425 11.8737C21.4377 11.3314 21.4284 10.7495 21.0963 10.2892C20.7581 9.81425 20.1841 9.59048 19.5799 9.59048H15.5799C15.2029 9.59048 14.8612 9.43192 14.6274 9.16263L14.6267 9.16191C14.3871 8.88698 14.2754 8.51598 14.3342 8.11549L14.832 4.91999C14.9976 4.10569 14.4662 3.24646 13.7051 2.98853C13.3275 2.85214 12.9295 2.89178 12.6098 2.99888C12.2947 3.10445 11.9769 3.30221 11.7878 3.57721L11.7878 3.5772L11.7849 3.58156L7.96327 9.26738L7.55429 8.99363L11.3748 3.3094L11.3752 3.30885C11.8761 2.56152 13.0106 2.19077 13.8724 2.51793L13.8831 2.522L13.894 2.52557C14.9041 2.85689 15.5557 3.98814 15.3314 5.01363L15.3282 5.02854L15.3258 5.04362L14.8358 8.19363L14.8358 8.19362L14.8349 8.19977C14.8182 8.31691 14.7978 8.60317 15.0136 8.84973L15.0245 8.86226L15.0363 8.87403C15.183 9.02075 15.3815 9.10048 15.5899 9.10048H19.5899C20.4305 9.10048 21.1174 9.44935 21.5111 10.0084L21.5122 10.01C21.8962 10.5507 21.9906 11.2854 21.72 12.0296L21.7173 12.037L21.7148 12.0445L19.3248 19.3245L19.3196 19.3405L19.3154 19.3569C19.0055 20.5712 17.6764 21.6005 16.2799 21.6005H12.4799C12.2408 21.6005 11.84 21.563 11.4295 21.4517C11.0121 21.3384 10.6403 21.1638 10.4034 20.9269Z" fill="#202C38" stroke="#202C38"/>
<path d="M5.37988 20.5004H4.37988C3.52442 20.5004 2.98559 20.2987 2.65822 19.983C2.33437 19.6707 2.12988 19.1619 2.12988 18.3504V8.55039C2.12988 7.73892 2.33437 7.23011 2.65822 6.9178C2.98559 6.60209 3.52442 6.40039 4.37988 6.40039H5.37988C6.23534 6.40039 6.77418 6.60209 7.10155 6.9178C7.4254 7.23011 7.62988 7.73892 7.62988 8.55039V18.3504C7.62988 19.1619 7.4254 19.6707 7.10155 19.983C6.77418 20.2987 6.23534 20.5004 5.37988 20.5004ZM4.37988 6.90039C4.0934 6.90039 3.83578 6.91688 3.61382 6.96738C3.38745 7.01887 3.16822 7.11245 2.99258 7.28809C2.81559 7.46508 2.72807 7.68015 2.68301 7.8905C2.63948 8.09367 2.62988 8.32016 2.62988 8.55039V18.3504C2.62988 18.5806 2.63948 18.8071 2.68301 19.0103C2.72807 19.2206 2.81559 19.4357 2.99258 19.6127C3.16822 19.7883 3.38745 19.8819 3.61382 19.9334C3.83578 19.9839 4.0934 20.0004 4.37988 20.0004H5.37988C5.66637 20.0004 5.92398 19.9839 6.14595 19.9334C6.37232 19.8819 6.59155 19.7883 6.76719 19.6127C6.94418 19.4357 7.0317 19.2206 7.07676 19.0103C7.12028 18.8071 7.12988 18.5806 7.12988 18.3504V8.55039C7.12988 8.32016 7.12028 8.09367 7.07676 7.8905C7.0317 7.68015 6.94418 7.46508 6.76719 7.28809C6.59155 7.11245 6.37232 7.01887 6.14595 6.96738C5.92398 6.91688 5.66637 6.90039 5.37988 6.90039H4.37988Z" fill="#202C38" stroke="#202C38"/>
</svg>
