<svg width="20" height="20" viewBox="0 0 20 20" fill="none" xmlns="http://www.w3.org/2000/svg">
<g clip-path="url(#clip0_2749_7266)">
<path d="M18.0129 12.7571C17.9674 12.661 17.8957 12.5798 17.8059 12.523C17.7161 12.4661 17.6121 12.436 17.5058 12.436C17.3996 12.436 17.2955 12.4661 17.2057 12.523C17.116 12.5798 17.0442 12.661 16.9988 12.7571L15.5284 15.863C15.3452 16.2048 15.2537 16.5883 15.2628 16.976C15.272 17.3637 15.3815 17.7425 15.5807 18.0753C15.7799 18.4081 16.0619 18.6836 16.3993 18.8748C16.7367 19.0661 17.118 19.1666 17.5058 19.1666C17.8937 19.1666 18.2749 19.0661 18.6123 18.8748C18.9497 18.6836 19.2317 18.4081 19.4309 18.0753C19.6301 17.7425 19.7396 17.3637 19.7488 16.976C19.7579 16.5883 19.6664 16.2048 19.4832 15.863L18.0129 12.7571ZM17.5058 18.0449C17.2083 18.0449 16.923 17.9267 16.7126 17.7163C16.5022 17.5059 16.384 17.2206 16.384 16.9231C16.3832 16.7352 16.4303 16.5503 16.5209 16.3857C16.5261 16.376 16.531 16.3663 16.5358 16.3565L17.5058 14.3078L18.4758 16.3569C18.4807 16.3666 18.4855 16.3764 18.4908 16.3861C18.5812 16.5506 18.6283 16.7353 18.6276 16.9231C18.6276 17.2206 18.5094 17.5059 18.299 17.7163C18.0887 17.9267 17.8033 18.0449 17.5058 18.0449Z" fill="#919699"/>
<path d="M18.2069 10.8593C18.1898 10.739 18.134 10.6275 18.048 10.5415C17.962 10.4556 17.8505 10.4 17.7301 10.3829L12.0433 9.57375L11.4387 7.31594C11.3819 7.10213 11.2832 6.90171 11.1484 6.72629C11.0136 6.55087 10.8454 6.40393 10.6534 6.29398L8.62707 5.12394L10.0583 3.28141L11.5166 4.12276C11.6455 4.19714 11.7987 4.21726 11.9425 4.17869C12.0862 4.14012 12.2088 4.04603 12.2832 3.9171C12.3576 3.78817 12.3777 3.63498 12.3391 3.49122C12.3005 3.34746 12.2064 3.22492 12.0775 3.15054L8.19159 0.908428C8.06266 0.834048 7.90947 0.81393 7.76571 0.852499C7.62195 0.891069 7.4994 0.985166 7.42502 1.11409C7.35064 1.24302 7.33052 1.39621 7.36909 1.53997C7.40766 1.68373 7.50176 1.80628 7.63069 1.88066L9.08903 2.72163L7.65783 4.56416L5.30691 3.20641L4.04638 1.78546C3.86949 1.58596 3.64774 1.43135 3.39938 1.33436C3.15102 1.23738 2.88317 1.2008 2.6179 1.22764C2.35263 1.25448 2.09754 1.34397 1.87364 1.48874C1.64975 1.63351 1.46345 1.82941 1.33012 2.0603L0.8283 2.92633C0.651672 3.23219 0.575766 3.58588 0.611336 3.93728C0.646906 4.28868 0.792148 4.61998 1.02649 4.88425L2.57569 6.63089L0.224617 10.0656C0.00209161 10.4522 -0.0580382 10.9113 0.0574118 11.3422C0.172862 11.7731 0.454469 12.1406 0.840486 12.3642L7.1409 16.0015C7.37262 16.1352 7.63288 16.2117 7.9001 16.2247C8.16732 16.2377 8.43378 16.1868 8.67739 16.0762L17.8823 11.4494C17.993 11.3994 18.0845 11.3149 18.143 11.2085C18.2015 11.1021 18.2239 10.9796 18.2069 10.8593ZM1.86597 4.13974C1.78798 4.0516 1.7397 3.94115 1.72795 3.82405C1.71621 3.70694 1.7416 3.58911 1.80053 3.48723L2.3016 2.62083C2.34605 2.54389 2.40814 2.47861 2.48276 2.43037C2.55738 2.38213 2.6424 2.35231 2.7308 2.34336C2.81921 2.33441 2.90847 2.3466 2.99125 2.37891C3.07402 2.41122 3.14793 2.46274 3.20689 2.52921L4.25952 3.71645L3.16838 5.60669L1.86597 4.13974ZM5.15135 4.41309L10.0921 7.26546C10.1561 7.30211 10.2122 7.35109 10.2571 7.40956C10.3021 7.46804 10.335 7.53484 10.3539 7.60611L11.0546 10.2218C11.0829 10.3282 11.1418 10.4239 11.224 10.497C11.3063 10.5702 11.4082 10.6175 11.5172 10.6331L15.6581 11.2224L8.21596 15.055C8.13468 15.092 8.04576 15.1089 7.95659 15.1046C7.86743 15.1002 7.78059 15.0746 7.70329 15.03L1.40288 11.3927C1.33905 11.3559 1.28309 11.3068 1.23822 11.2484C1.19335 11.1899 1.16044 11.1232 1.14138 11.052C1.12231 10.9808 1.11747 10.9065 1.12711 10.8335C1.13676 10.7604 1.16071 10.69 1.19759 10.6262L5.15135 4.41309Z" fill="#919699"/>
</g>
<defs>
<clipPath id="clip0_2749_7266">
<rect width="20" height="20" fill="white"/>
</clipPath>
</defs>
</svg>
