<svg width="32" height="32" viewBox="0 0 32 32" fill="none" xmlns="http://www.w3.org/2000/svg">
<g clip-path="url(#clip0_3881_58391)">
<path d="M16.0023 0.00183105C7.16716 0.00183105 0.00488281 7.16411 0.00488281 15.9992C0.00488281 21.4225 2.70375 26.2155 6.83135 29.1081V29.1088C12.3262 32.9593 19.6723 32.9635 25.1732 29.1088V29.1081C29.3008 26.2155 31.9996 21.4225 31.9996 15.9992C31.9996 7.16418 24.8374 0.00183105 16.0023 0.00183105Z" fill="#CBE3FA"/>
<path d="M16.8153 3.6977C9.77807 5.29943 4.34641 11.8937 4.07755 19.1098C3.99536 21.3157 0.855115 21.608 0.379952 19.4523C-1.85589 9.30719 6.06895 -0.279653 16.4539 0.00802381C18.6345 0.0684277 18.9423 3.21357 16.8153 3.6977Z" fill="#EEF7FF"/>
<path d="M22.9784 25.3121C20.2192 24.3633 20.2632 24.3908 19.9864 24.2488C18.8637 23.6776 18.2012 22.5085 18.2012 21.4066C20.4257 20.5433 22.002 18.3822 22.002 15.853V15.6647C22.8927 15.6647 23.519 14.9735 23.519 14.1898C23.519 14.0519 23.519 11.1834 23.519 11.1834C23.5148 1.22366 8.48693 1.22366 8.48693 11.1875V14.1898C8.48693 14.9723 9.11166 15.6647 10.0039 15.6647V15.853C10.0039 18.3781 11.5747 20.5357 13.793 21.4017C13.793 22.6822 12.9621 23.9568 11.6037 24.4261L9.02753 25.3121C7.71396 25.7638 6.83203 26.9994 6.83203 28.3889V29.1087C12.3269 32.9592 19.673 32.9634 25.1739 29.1087C25.1739 28.6876 25.1739 28.8082 25.1739 28.3889C25.1739 26.9995 24.2919 25.7638 22.9784 25.3121Z" fill="#E0B7A3"/>
<path d="M23.5183 11.1834V14.1898C23.5183 14.9723 22.8936 15.6647 22.0014 15.6647V11.9495C22.0014 9.54781 19.2025 8.13563 17.2021 9.77743C16.5354 10.3249 15.4962 10.347 14.8025 9.77743C12.8022 8.13563 10.0033 9.54781 10.0033 11.9495V15.6647C9.11257 15.6647 8.48633 14.9735 8.48633 14.1898C8.48633 14.0553 8.48633 11.3123 8.48633 11.1875C8.48633 1.22366 23.5142 1.22366 23.5183 11.1834Z" fill="#42434D"/>
<path d="M25.1739 28.3889V29.1088C19.679 32.9593 12.3329 32.9635 6.83203 29.1088C6.83203 28.6874 6.83203 28.8084 6.83203 28.3889C6.83203 26.9995 7.71396 25.7639 9.02753 25.3122C11.8723 24.3339 11.7617 24.384 12.0401 24.2393C13.5937 27.6787 18.4267 27.6787 19.9857 24.2496C19.9927 24.2426 20.0955 24.3205 20.4022 24.4261L22.9784 25.3122C24.2919 25.7639 25.1739 26.9995 25.1739 28.3889Z" fill="#80AAFF"/>
<path d="M31.6473 4.2135C32.1127 4.6948 32.1127 5.45812 31.6473 5.93942L31.5438 6.04699C31.2777 6.32212 31.1529 6.70412 31.2067 7.08337L31.228 7.23162C31.3211 7.89427 30.8729 8.5121 30.213 8.62795L30.0662 8.65346C29.689 8.71966 29.3635 8.95617 29.1842 9.29404L29.1146 9.42575C28.8002 10.0174 28.0741 10.2532 27.4728 9.95945L27.339 9.89395C26.9949 9.7257 26.5922 9.7257 26.2482 9.89395L26.1144 9.95945C25.5131 10.2532 24.787 10.0174 24.4726 9.42575L24.4029 9.29404C24.2237 8.95617 23.8982 8.71966 23.521 8.65346L23.3741 8.62795C22.7143 8.5121 22.2661 7.89427 22.3591 7.23162L22.3805 7.08337C22.4343 6.70412 22.3095 6.32212 22.0433 6.04699L21.9399 5.93942C21.4745 5.45812 21.4745 4.6948 21.9399 4.2135L22.0433 4.10593C22.3095 3.8308 22.4343 3.44811 22.3805 3.06955L22.3591 2.9213C22.2661 2.25865 22.7143 1.64082 23.3741 1.52497L23.521 1.49946C23.8982 1.43326 24.2237 1.19675 24.4029 0.858874L24.4726 0.726482C24.787 0.135545 25.5131 -0.100279 26.1144 0.193466L26.2482 0.258973C26.5922 0.427221 26.9949 0.427221 27.339 0.258973L27.4728 0.193466C28.0741 -0.100279 28.8002 0.135545 29.1146 0.726482L29.1842 0.858874C29.3635 1.19675 29.689 1.43326 30.0662 1.49946L30.213 1.52497C30.8729 1.64082 31.3211 2.25865 31.228 2.9213L31.2067 3.06955C31.1529 3.44811 31.2777 3.8308 31.5438 4.10593L31.6473 4.2135Z" fill="#9CBCFF"/>
<path d="M25.8016 7.14935L24.81 6.15779C24.5946 5.94238 24.5946 5.59313 24.81 5.37771C25.0255 5.1623 25.3747 5.1623 25.5901 5.37771L26.1667 5.95431L28.4682 3.3497C28.6699 3.12139 29.0185 3.09988 29.2468 3.30157C29.4752 3.50333 29.4967 3.85189 29.2949 4.0802L26.6049 7.12453C26.3946 7.3627 26.0266 7.37435 25.8016 7.14935Z" fill="white"/>
<path d="M31.6475 5.93947C31.6171 5.98657 31.1067 6.3763 31.2069 7.08342L31.2283 7.23167C31.3214 7.89432 30.8732 8.51215 30.2133 8.628L30.0664 8.65351C29.6892 8.7197 29.3638 8.95622 29.1845 9.29409L29.1148 9.4258C28.8004 10.0174 28.0743 10.2532 27.473 9.9595L27.3393 9.89399C26.9952 9.72554 26.5925 9.72554 26.2484 9.89399L26.1146 9.9595C25.5134 10.2532 24.7873 10.0174 24.4728 9.4258C24.4409 9.38656 24.2276 8.77749 23.5213 8.65351C23.5035 8.64579 23.355 8.63848 23.1676 8.57207C22.9142 8.48223 23.0394 8.10043 23.2983 8.17297C26.9401 9.19397 30.4619 6.43966 30.4028 2.69559C30.3945 2.16526 31.1944 2.11961 31.2366 2.64829C31.2437 2.73758 31.2412 2.82901 31.2283 2.92134C31.231 2.97016 31.0445 3.58958 31.5441 4.10598L31.6475 4.21355C32.113 4.69485 32.113 5.45817 31.6475 5.93947Z" fill="#80AAFF"/>
<path d="M18.0637 5.09333C15.099 5.09533 12.1359 6.64825 11.0197 9.75188C10.4081 10.2656 10.0033 11.0358 10.0033 11.9495V15.6647C9.11257 15.6647 8.48633 14.9734 8.48633 14.1898V11.1875C8.48633 5.21456 13.8871 2.82219 18.214 4.00986C18.8354 4.18052 18.7081 5.09292 18.0637 5.09333Z" fill="#585966"/>
<path d="M15.1758 19.6965C16.2467 20.2889 15.568 21.9211 14.3875 21.5985C11.8468 20.904 10.004 18.5855 10.004 15.853C10.004 11.6141 10.0031 11.9183 10.0062 11.8358C10.0556 10.5056 12.0516 10.5414 12.0782 11.8723C12.0914 12.5331 12.0891 13.3681 12.0727 14.4739C12.0379 16.8169 13.3818 18.7043 15.1758 19.6965Z" fill="#F0CCB6"/>
<path d="M18.3162 22.1981C18.3937 22.4813 18.2429 22.7776 17.965 22.872C16.7317 23.2908 15.2946 23.3011 14.0298 22.8684C13.7558 22.7747 13.6063 22.4837 13.6815 22.2041C13.7966 21.7755 13.7857 21.4616 13.7927 21.4019C15.1765 21.9431 16.7999 21.9504 18.2009 21.4067C18.2029 21.4228 18.1948 21.755 18.3162 22.1981Z" fill="#C79A83"/>
<path d="M12.9201 25.5365C13.0994 25.7195 13.0314 26.0255 12.7891 26.1089L11.0962 26.6913C9.78258 27.143 8.90066 28.3786 8.90066 29.7681C8.90066 30.0311 8.61926 30.1968 8.38798 30.0715C7.85 29.7798 7.33043 29.4583 6.83203 29.1089V28.389C6.83203 26.9996 7.71485 25.7665 9.02753 25.3123C11.5951 24.4239 11.6796 24.4268 12.0401 24.2394C12.2691 24.7463 12.5695 25.1787 12.9201 25.5365Z" fill="#9CBCFF"/>
</g>
<defs>
<clipPath id="clip0_3881_58391">
<rect width="32" height="32" fill="white"/>
</clipPath>
</defs>
</svg>
