<svg width="20" height="20" viewBox="0 0 20 20" fill="none" xmlns="http://www.w3.org/2000/svg">
<path d="M14.1667 17.2917H5.83341C2.15841 17.2917 1.04175 16.175 1.04175 12.5V12.0834C1.04175 11.7417 1.32508 11.4584 1.66675 11.4584C2.46675 11.4584 3.12508 10.8 3.12508 10C3.12508 9.20004 2.46675 8.54171 1.66675 8.54171C1.32508 8.54171 1.04175 8.25837 1.04175 7.91671V7.50004C1.04175 3.82504 2.15841 2.70837 5.83341 2.70837H14.1667C17.8417 2.70837 18.9584 3.82504 18.9584 7.50004V8.33337C18.9584 8.67504 18.6751 8.95837 18.3334 8.95837C17.5334 8.95837 16.8751 9.61671 16.8751 10.4167C16.8751 11.2167 17.5334 11.875 18.3334 11.875C18.6751 11.875 18.9584 12.1584 18.9584 12.5C18.9584 16.175 17.8417 17.2917 14.1667 17.2917ZM2.29175 12.6334C2.30841 15.5 2.90008 16.0417 5.83341 16.0417H14.1667C16.9501 16.0417 17.6251 15.55 17.7001 13.05C16.5084 12.7667 15.6251 11.6917 15.6251 10.4167C15.6251 9.14171 16.5167 8.06671 17.7084 7.78337V7.50004C17.7084 4.52504 17.1417 3.95837 14.1667 3.95837H5.83341C2.90008 3.95837 2.30841 4.50004 2.29175 7.36671C3.48341 7.65004 4.37508 8.72504 4.37508 10C4.37508 11.275 3.48341 12.35 2.29175 12.6334Z" fill="#919699"/>
<path d="M12.5001 13.2333C12.0334 13.2333 11.6584 12.8583 11.6584 12.4C11.6584 11.9417 12.0334 11.5667 12.4918 11.5667C12.9501 11.5667 13.3251 11.9417 13.3251 12.4C13.3251 12.8583 12.9668 13.2333 12.5001 13.2333Z" fill="#919699"/>
<path d="M7.50011 9.06669C7.03345 9.06669 6.65845 8.69169 6.65845 8.23336C6.65845 7.77502 7.03345 7.40002 7.49178 7.40002C7.95011 7.40002 8.32511 7.77502 8.32511 8.23336C8.32511 8.69169 7.96678 9.06669 7.50011 9.06669Z" fill="#919699"/>
<path d="M7.19176 13.6917C7.03343 13.6917 6.8751 13.6334 6.7501 13.5084C6.50843 13.2667 6.50843 12.8667 6.7501 12.625L12.3584 7.0167C12.6001 6.77503 13.0001 6.77503 13.2418 7.0167C13.4834 7.25837 13.4834 7.65837 13.2418 7.90003L7.63343 13.5084C7.51676 13.6334 7.3501 13.6917 7.19176 13.6917Z" fill="#919699"/>
</svg>
