<svg width="20" height="20" viewBox="0 0 20 20" fill="none" xmlns="http://www.w3.org/2000/svg">
<path fill-rule="evenodd" clip-rule="evenodd" d="M0.672026 12.9214C0.760613 12.6999 0.975109 12.5547 1.21364 12.5547H18.7866C19.0251 12.5547 19.2396 12.6999 19.3282 12.9214L19.9558 14.4904C20.0142 14.6366 20.0111 14.8002 19.9471 14.9441C19.8831 15.088 19.7637 15.1999 19.616 15.2544C16.447 16.4228 13.2162 16.8594 10.0001 16.8594C6.78708 16.8594 3.55314 16.4229 0.384202 15.2544C0.236462 15.1999 0.117021 15.088 0.0530288 14.9441C-0.0109639 14.8002 -0.0140729 14.6366 0.0444084 14.4904L0.672026 12.9214ZM1.60857 13.7214L1.35316 14.3599C4.18702 15.3218 7.08709 15.6927 10.0001 15.6927C12.916 15.6927 15.8134 15.3218 18.647 14.3599L18.3916 13.7214H1.60857Z" fill="#919699"/>
<path fill-rule="evenodd" clip-rule="evenodd" d="M6.90625 3.72396C6.90625 3.40179 7.16742 3.14062 7.48958 3.14062H12.5104C12.8326 3.14062 13.0938 3.40179 13.0938 3.72396V8.74482C13.0938 9.06698 12.8326 9.32815 12.5104 9.32815C12.1883 9.32815 11.9271 9.06698 11.9271 8.74482V4.30729H8.07292V8.74482C8.07292 9.06698 7.81175 9.32815 7.48958 9.32815C7.16742 9.32815 6.90625 9.06698 6.90625 8.74482V3.72396Z" fill="#919699"/>
<path fill-rule="evenodd" clip-rule="evenodd" d="M8.04463 5.1933C8.14373 5.49985 7.97556 5.82869 7.66902 5.92779C4.80362 6.85411 2.68385 9.44209 2.44662 12.5548H17.5534C17.3165 9.44189 15.1991 6.85411 12.3312 5.92784C12.0246 5.82882 11.8563 5.50003 11.9553 5.19345C12.0544 4.88688 12.3832 4.71862 12.6897 4.81764C16.2028 5.95228 18.7422 9.24767 18.7422 13.1381C18.7422 13.4603 18.481 13.7214 18.1589 13.7214H1.84115C1.51898 13.7214 1.25781 13.4603 1.25781 13.1381C1.25781 9.24743 3.80051 5.95227 7.31015 4.81769C7.61669 4.71859 7.94553 4.88676 8.04463 5.1933Z" fill="#919699"/>
</svg>
