<svg width="20" height="20" viewBox="0 0 20 20" fill="none" xmlns="http://www.w3.org/2000/svg">
<g clip-path="url(#clip0_307_38931)">
<path fill-rule="evenodd" clip-rule="evenodd" d="M13.2275 1.82335C13.2235 1.82135 13.2147 1.81754 13.1986 1.81473C11.3223 1.48521 9.32325 2.04523 7.87569 3.49278C6.28795 5.08053 5.76784 7.33251 6.31847 9.35687C6.46211 9.88506 6.33449 10.4975 5.88195 10.9021L5.88064 10.9033L2.12365 14.286C1.86716 14.5169 1.47194 14.4962 1.24099 14.2397C1.01003 13.9832 1.03075 13.588 1.2873 13.357L5.0464 9.97242L5.04857 9.97047C5.10495 9.92019 5.14782 9.81563 5.11227 9.68497C4.44883 7.24576 5.07432 4.52639 6.99181 2.6089C8.73967 0.861037 11.1544 0.186587 13.4149 0.583568C13.9717 0.681373 14.3436 1.08297 14.4599 1.55261C14.5733 2.01013 14.4451 2.52131 14.0762 2.89023L11.2986 5.66775C11.2475 5.71891 11.2265 5.79294 11.2433 5.86332L11.7532 8.00505C11.7714 8.0815 11.8312 8.14125 11.9076 8.15944L14.0493 8.66937C14.1198 8.68616 14.1938 8.66519 14.2449 8.61403L17.0224 5.83651C17.3914 5.46758 17.9026 5.33942 18.3601 5.45276C18.8297 5.56909 19.2313 5.94094 19.3291 6.49782C19.7261 8.75828 19.0516 11.173 17.3038 12.9209C15.3863 14.8384 12.6669 15.4639 10.2277 14.8004C10.0971 14.7649 9.99248 14.8077 9.94222 14.8641L9.94027 14.8663L6.55571 18.6254C6.32472 18.882 5.9295 18.9026 5.673 18.6717C5.41644 18.4407 5.39576 18.0455 5.62669 17.789L9.00937 14.032L9.01043 14.0308C9.41507 13.5782 10.0276 13.4505 10.5558 13.5942C12.5801 14.1448 14.8322 13.6247 16.4199 12.037C17.8675 10.5894 18.4275 8.59034 18.098 6.71404C18.0951 6.69801 18.0914 6.68917 18.0893 6.68518C18.0873 6.68119 18.0846 6.67813 18.0846 6.67813C18.0828 6.67628 18.076 6.67014 18.0595 6.66609C18.0252 6.6576 17.964 6.66276 17.9063 6.7204L15.1288 9.49792C14.7707 9.85601 14.2525 10.0027 13.7599 9.88541L11.6181 9.37549C11.0827 9.24798 10.6647 8.82996 10.5372 8.29456L10.0273 6.15285C9.90999 5.66019 10.0567 5.14196 10.4148 4.78387L13.1923 2.00635C13.2499 1.94871 13.2551 1.88749 13.2466 1.85317C13.2425 1.8367 13.2364 1.82991 13.2345 1.82808C13.2345 1.82808 13.2315 1.82537 13.2275 1.82335Z" fill="#919699"/>
</g>
<defs>
<clipPath id="clip0_307_38931">
<rect width="20" height="20" fill="white"/>
</clipPath>
</defs>
</svg>
