<svg width="20" height="20" viewBox="0 0 20 20" fill="none" xmlns="http://www.w3.org/2000/svg">
<path d="M9.58362 18.9584C8.92528 18.9584 8.30029 18.6167 7.86695 18.0334L7.01694 16.9167C6.84194 16.6834 6.60862 16.55 6.35862 16.5334C6.11696 16.5167 5.85864 16.6334 5.65031 16.8417C4.93364 17.6084 4.2336 17.9751 3.57527 17.9584C3.12527 17.9417 2.7336 17.7417 2.4336 17.375C2.40027 17.3334 2.36695 17.2751 2.34195 17.2167C2.01695 16.5167 1.86694 15.5667 1.86694 14.1417V5.87505C1.86694 4.45005 2.01695 3.50838 2.34195 2.80005C2.36695 2.75005 2.39194 2.70005 2.4336 2.65838C2.72527 2.28338 3.11698 2.08338 3.56698 2.05838C4.23364 2.03338 4.94197 2.41672 5.64197 3.16672C5.8503 3.39172 6.10028 3.50005 6.35028 3.48338C6.60028 3.46672 6.8336 3.33338 7.0086 3.10005L7.85861 1.97505C8.29195 1.39172 8.91694 1.05005 9.57528 1.05005C10.2336 1.05005 10.8586 1.39172 11.2919 1.97505L12.1336 3.09172C12.3086 3.33338 12.5503 3.46672 12.8086 3.48338C13.0503 3.50005 13.3086 3.38338 13.5169 3.16672C14.2003 2.43338 14.8753 2.05838 15.5253 2.05838C15.992 2.05838 16.4253 2.26672 16.7253 2.65838C16.7586 2.70005 16.7919 2.75005 16.8169 2.80838C17.1419 3.50838 17.292 4.45838 17.292 5.88338V14.15C17.292 15.575 17.1419 16.5167 16.8169 17.225C16.7836 17.3 16.742 17.3667 16.6836 17.4251C16.4253 17.7584 16.0003 17.9667 15.5253 17.9667C14.8753 17.9667 14.2003 17.5917 13.5169 16.8584C13.3169 16.6417 13.0419 16.525 12.8086 16.5417C12.5503 16.5584 12.3169 16.6917 12.1336 16.9334L11.2919 18.0501C10.8669 18.6167 10.242 18.9584 9.58362 18.9584ZM6.31697 15.2751C6.3503 15.2751 6.39197 15.2751 6.4253 15.2751C7.04197 15.3084 7.61694 15.6334 8.00861 16.1584L8.85862 17.2834C9.26696 17.8334 9.8836 17.8334 10.2919 17.2917L11.1336 16.175C11.5336 15.6417 12.117 15.325 12.7336 15.2917C13.3503 15.2584 13.9669 15.5167 14.4169 16.0001C15.0336 16.6584 15.4086 16.7084 15.5086 16.7084C15.5753 16.7084 15.6336 16.6917 15.692 16.6417C15.9253 16.1167 16.0253 15.3251 16.0253 14.1417V5.87505C16.0253 4.70838 15.917 3.91672 15.692 3.39172C15.6253 3.31672 15.5586 3.30838 15.5086 3.30838C15.4086 3.30838 15.0336 3.35838 14.4169 4.01672C13.9669 4.50005 13.3503 4.75838 12.7336 4.72505C12.1086 4.69172 11.5253 4.36672 11.1253 3.84172L10.2836 2.72505C9.87531 2.17505 9.25861 2.17505 8.85028 2.72505L8.00026 3.85838C7.6086 4.38338 7.03363 4.70005 6.41696 4.73338C5.80029 4.76672 5.18361 4.50838 4.73361 4.03338C4.22528 3.48338 3.83364 3.30005 3.61697 3.30838C3.56697 3.30838 3.50862 3.32505 3.44196 3.39172C3.21696 3.91672 3.1086 4.70838 3.1086 5.87505V14.1417C3.1086 15.3167 3.21696 16.1084 3.44196 16.6334C3.51696 16.7 3.56697 16.7084 3.61697 16.7167C3.82531 16.725 4.21694 16.5417 4.72527 16.0001C5.16694 15.5251 5.74197 15.2751 6.31697 15.2751Z" fill="#919699"/>
<path d="M13.3334 9.16663H6.66675C6.32508 9.16663 6.04175 8.88329 6.04175 8.54163C6.04175 8.19996 6.32508 7.91663 6.66675 7.91663H13.3334C13.6751 7.91663 13.9584 8.19996 13.9584 8.54163C13.9584 8.88329 13.6751 9.16663 13.3334 9.16663Z" fill="#919699"/>
<path d="M11.6667 12.0834H6.66675C6.32508 12.0834 6.04175 11.8 6.04175 11.4584C6.04175 11.1167 6.32508 10.8334 6.66675 10.8334H11.6667C12.0084 10.8334 12.2917 11.1167 12.2917 11.4584C12.2917 11.8 12.0084 12.0834 11.6667 12.0834Z" fill="#919699"/>
</svg>
