<svg width="20" height="20" viewBox="0 0 20 20" fill="none" xmlns="http://www.w3.org/2000/svg">
<path d="M9.97493 18.9584C5.0416 18.9584 1.0166 14.9417 1.0166 10C1.0166 5.05835 5.0416 1.04169 9.97493 1.04169C14.9083 1.04169 18.9333 5.05835 18.9333 10C18.9333 14.9417 14.9166 18.9584 9.97493 18.9584ZM9.97493 2.29169C5.72494 2.29169 2.2666 5.75002 2.2666 10C2.2666 14.25 5.72494 17.7084 9.97493 17.7084C14.2249 17.7084 17.6833 14.25 17.6833 10C17.6833 5.75002 14.2249 2.29169 9.97493 2.29169Z" fill="#919699"/>
<path d="M9.99998 16.0417C8.20831 16.0417 6.52498 15.1667 5.49998 13.6917C5.29998 13.4083 5.37498 13.0167 5.65831 12.825C5.94165 12.625 6.33331 12.7 6.52498 12.9833C7.31665 14.1167 8.61665 14.8 9.99998 14.8C11.3833 14.8 12.6833 14.125 13.475 12.9833C13.675 12.7 14.0583 12.6333 14.3416 12.825C14.625 13.025 14.6916 13.4083 14.5 13.6917C13.475 15.1667 11.7916 16.0417 9.99998 16.0417Z" fill="#919699"/>
</svg>
