<svg width="20" height="20" viewBox="0 0 20 20" fill="none" xmlns="http://www.w3.org/2000/svg">
<path d="M18.6648 10.249V9.64666C19.4364 9.41047 19.9993 8.69006 19.9993 7.83975C19.9993 6.99731 19.4443 6.28478 18.6845 6.04071V0.556973C18.6845 0.0530832 18.0389 -0.222481 17.6807 0.226295L10.327 9.41957V7.63481C10.327 7.48915 10.268 7.34743 10.1656 7.24114L7.90205 4.97758C7.7997 4.87523 7.65798 4.81618 7.50839 4.81618H2.48524C2.17818 4.81618 1.93017 5.06418 1.93017 5.37124V14.6698C0.816104 15.0123 0.0012207 16.0516 0.0012207 17.2759C0.0012207 18.7757 1.22551 20 2.72537 20H13.9566C15.4604 20 16.6807 18.7757 16.6807 17.2759C16.6807 15.776 15.4565 14.5517 13.9566 14.5517H10.327V11.2973L17.5744 2.25366V6.0289C16.791 6.26116 16.2202 6.9855 16.2202 7.83975C16.2202 8.69006 16.7831 9.41047 17.5547 9.64666V10.7174C17.5547 11.0245 17.8027 11.2725 18.1097 11.2725C18.4837 11.2725 18.7908 11.5756 18.7908 11.9535C18.7908 12.3315 18.4877 12.6346 18.1097 12.6346C17.7988 12.6346 17.5311 12.4259 17.4523 12.1267C17.3736 11.8276 17.0705 11.6504 16.7752 11.7291C16.48 11.8079 16.2989 12.111 16.3776 12.4062C16.5823 13.1936 17.2949 13.7447 18.1097 13.7447C19.0978 13.7447 19.9009 12.9416 19.9009 11.9535C19.9009 11.1583 19.3813 10.4852 18.6648 10.249ZM3.0403 5.92237H7.27219L9.21295 7.86313V14.5478H3.0403V5.92237ZM13.9566 15.6618C14.8463 15.6618 15.5706 16.3862 15.5706 17.2759C15.5706 18.1655 14.8463 18.8899 13.9566 18.8899H2.72537C1.83569 18.8899 1.11135 18.1655 1.11135 17.2759C1.11135 16.3862 1.83569 15.6618 2.72537 15.6618H13.9566ZM18.1097 8.6192C17.6807 8.6192 17.3303 8.26884 17.3303 7.83975C17.3303 7.41066 17.6807 7.0603 18.1097 7.0603C18.5388 7.0603 18.8892 7.41066 18.8892 7.83975C18.8892 8.26884 18.5388 8.6192 18.1097 8.6192Z" fill="#919699"/>
</svg>
