<svg width="20" height="20" viewBox="0 0 20 20" fill="none" xmlns="http://www.w3.org/2000/svg">
<path d="M10.8418 18.75C10.3418 18.75 9.56682 18.5083 8.82515 17.2917L7.35848 14.9166C7.21681 14.6833 6.78347 14.4583 6.5168 14.475L3.73345 14.6167C2.06678 14.7 1.48349 14.0083 1.27516 13.5916C1.06682 13.175 0.883452 12.2833 1.96679 11.0167L3.61682 9.1C3.78349 8.9 3.87513 8.46664 3.80013 8.21664L2.95845 5.52499C2.53345 4.17499 3.00846 3.44999 3.32512 3.13333C3.64179 2.81666 4.37513 2.35831 5.72513 2.80831L8.18347 3.61665C8.40847 3.69165 8.82514 3.62499 9.0168 3.49165L11.5835 1.64165C12.7585 0.791653 13.6085 1.01665 14.0001 1.22499C14.3918 1.43332 15.0584 2 15.0334 3.45L14.9751 6.60831C14.9668 6.84165 15.1584 7.22498 15.3418 7.36665L17.4085 8.93332C18.5335 9.79165 18.5751 10.65 18.5001 11.0916C18.4251 11.5333 18.0918 12.3333 16.7418 12.75L14.0501 13.5916C13.8001 13.6666 13.4918 13.9916 13.4251 14.2416L12.7835 16.6917C12.3585 18.3 11.5251 18.6583 11.0585 18.725C11.0001 18.7417 10.9251 18.75 10.8418 18.75ZM6.54178 13.225C7.25844 13.225 8.05011 13.6583 8.41678 14.2583L9.88345 16.6333C10.3001 17.3166 10.6751 17.525 10.8751 17.4916C11.0668 17.4666 11.3668 17.15 11.5751 16.3833L12.2168 13.9333C12.3918 13.2667 13.0168 12.6083 13.6751 12.4083L16.3668 11.5667C16.8835 11.4083 17.2168 11.15 17.2668 10.8833C17.3168 10.6166 17.0834 10.2667 16.6501 9.93333L14.5835 8.36666C14.0751 7.98333 13.7085 7.21665 13.7168 6.58331L13.7752 3.42497C13.7835 2.86664 13.6502 2.44999 13.4085 2.32499C13.1668 2.19999 12.7585 2.32498 12.3001 2.64998L9.73346 4.49998C9.22512 4.86665 8.38348 4.99999 7.77515 4.79999L5.3168 3.99166C4.80014 3.82499 4.38349 3.83331 4.19182 4.02497C4.00016 4.21664 3.98344 4.63331 4.14177 5.14998L4.98345 7.84165C5.19178 8.49999 5.00844 9.39166 4.55844 9.90833L2.90846 11.825C2.38346 12.4333 2.30013 12.8583 2.39179 13.0333C2.47513 13.2083 2.87515 13.4 3.66682 13.3583L6.45012 13.2166C6.48346 13.225 6.51678 13.225 6.54178 13.225Z" fill="#919699"/>
<path d="M18.2583 18.9583C18.0999 18.9583 17.9416 18.9 17.8166 18.775L15.2916 16.25C15.0499 16.0083 15.0499 15.6083 15.2916 15.3667C15.5333 15.125 15.9333 15.125 16.1749 15.3667L18.7 17.8917C18.9416 18.1333 18.9416 18.5333 18.7 18.775C18.575 18.9 18.4166 18.9583 18.2583 18.9583Z" fill="#919699"/>
</svg>
