<svg width="20" height="20" viewBox="0 0 20 20" fill="none" xmlns="http://www.w3.org/2000/svg">
<path d="M14.1667 17.7084H5.83341C2.79175 17.7084 1.04175 15.9584 1.04175 12.9167V7.08335C1.04175 4.04169 2.79175 2.29169 5.83341 2.29169H14.1667C17.2084 2.29169 18.9584 4.04169 18.9584 7.08335V12.9167C18.9584 15.9584 17.2084 17.7084 14.1667 17.7084ZM5.83341 3.54169C3.45008 3.54169 2.29175 4.70002 2.29175 7.08335V12.9167C2.29175 15.3 3.45008 16.4584 5.83341 16.4584H14.1667C16.5501 16.4584 17.7084 15.3 17.7084 12.9167V7.08335C17.7084 4.70002 16.5501 3.54169 14.1667 3.54169H5.83341Z" fill="#919699"/>
<path d="M10 13.125C8.275 13.125 6.875 11.725 6.875 10C6.875 8.275 8.275 6.875 10 6.875C11.725 6.875 13.125 8.275 13.125 10C13.125 11.725 11.725 13.125 10 13.125ZM10 8.125C8.96667 8.125 8.125 8.96667 8.125 10C8.125 11.0333 8.96667 11.875 10 11.875C11.0333 11.875 11.875 11.0333 11.875 10C11.875 8.96667 11.0333 8.125 10 8.125Z" fill="#919699"/>
<path d="M15.8333 6.45831H13.3333C12.9916 6.45831 12.7083 6.17498 12.7083 5.83331C12.7083 5.49165 12.9916 5.20831 13.3333 5.20831H15.8333C16.1749 5.20831 16.4583 5.49165 16.4583 5.83331C16.4583 6.17498 16.1749 6.45831 15.8333 6.45831Z" fill="#919699"/>
<path d="M6.66675 14.7917H4.16675C3.82508 14.7917 3.54175 14.5084 3.54175 14.1667C3.54175 13.825 3.82508 13.5417 4.16675 13.5417H6.66675C7.00841 13.5417 7.29175 13.825 7.29175 14.1667C7.29175 14.5084 7.00841 14.7917 6.66675 14.7917Z" fill="#919699"/>
</svg>
