<svg width="20" height="20" viewBox="0 0 20 20" fill="none" xmlns="http://www.w3.org/2000/svg">
<path d="M10.8167 13.35H9.35005C8.29171 13.35 7.42505 12.4583 7.42505 11.3666C7.42505 11.025 7.70838 10.7416 8.05005 10.7416C8.39172 10.7416 8.67505 11.025 8.67505 11.3666C8.67505 11.775 8.97505 12.1 9.35005 12.1H10.8167C11.0917 12.1 11.325 11.85 11.325 11.5416C11.325 11.15 11.2334 11.1 10.9667 11.0083L8.62505 10.1916C7.82505 9.9083 7.43339 9.34996 7.43339 8.47496C7.43339 7.47496 8.21671 6.66663 9.19171 6.66663H10.6584C11.7167 6.66663 12.5834 7.55829 12.5834 8.64996C12.5834 8.99162 12.3001 9.27496 11.9584 9.27496C11.6167 9.27496 11.3334 8.99162 11.3334 8.64996C11.3334 8.24162 11.0334 7.91663 10.6584 7.91663H9.19171C8.91671 7.91663 8.68339 8.16662 8.68339 8.47496C8.68339 8.86662 8.77505 8.91662 9.04172 9.00829L11.3834 9.82496C12.1834 10.1083 12.575 10.6666 12.575 11.5416C12.5667 12.5333 11.7834 13.35 10.8167 13.35Z" fill="#919699"/>
<path d="M10 14.125C9.65833 14.125 9.375 13.8417 9.375 13.5V6.5C9.375 6.15833 9.65833 5.875 10 5.875C10.3417 5.875 10.625 6.15833 10.625 6.5V13.5C10.625 13.8417 10.3417 14.125 10 14.125Z" fill="#919699"/>
<path d="M10.0001 18.9583C5.05841 18.9583 1.04175 14.9416 1.04175 9.99996C1.04175 5.05829 5.05841 1.04163 10.0001 1.04163C14.9417 1.04163 18.9584 5.05829 18.9584 9.99996C18.9584 14.9416 14.9417 18.9583 10.0001 18.9583ZM10.0001 2.29163C5.75008 2.29163 2.29175 5.74996 2.29175 9.99996C2.29175 14.25 5.75008 17.7083 10.0001 17.7083C14.2501 17.7083 17.7084 14.25 17.7084 9.99996C17.7084 5.74996 14.2501 2.29163 10.0001 2.29163Z" fill="#919699"/>
</svg>
