<svg width="20" height="20" viewBox="0 0 20 20" fill="none" xmlns="http://www.w3.org/2000/svg">
<path d="M14.1667 18.9583H5.83342C2.96675 18.9583 1.04175 17.0333 1.04175 14.1667V8.33333C1.04175 5.46667 2.96675 3.54167 5.83342 3.54167H14.1667C17.0334 3.54167 18.9584 5.46667 18.9584 8.33333V14.1667C18.9584 17.0333 17.0334 18.9583 14.1667 18.9583ZM5.83342 4.79167C3.68341 4.79167 2.29175 6.18333 2.29175 8.33333V14.1667C2.29175 16.3167 3.68341 17.7083 5.83342 17.7083H14.1667C16.3167 17.7083 17.7084 16.3167 17.7084 14.1667V8.33333C17.7084 6.18333 16.3167 4.79167 14.1667 4.79167H5.83342Z" fill="#919699"/>
<path d="M5.83325 4.79167C5.49159 4.79167 5.20825 4.50833 5.20825 4.16667V1.66667C5.20825 1.325 5.49159 1.04167 5.83325 1.04167C6.17492 1.04167 6.45825 1.325 6.45825 1.66667V4.16667C6.45825 4.50833 6.17492 4.79167 5.83325 4.79167Z" fill="#919699"/>
<path d="M7.08333 13.9583C5.59167 13.9583 4.375 12.7417 4.375 11.25C4.375 9.75833 5.59167 8.54167 7.08333 8.54167C8.575 8.54167 9.79167 9.75833 9.79167 11.25C9.79167 12.7417 8.575 13.9583 7.08333 13.9583ZM7.08333 9.79167C6.28333 9.79167 5.625 10.45 5.625 11.25C5.625 12.05 6.28333 12.7083 7.08333 12.7083C7.88333 12.7083 8.54167 12.05 8.54167 11.25C8.54167 10.45 7.88333 9.79167 7.08333 9.79167Z" fill="#919699"/>
<path d="M15.4166 9.79167H12.0833C11.7416 9.79167 11.4583 9.50833 11.4583 9.16667C11.4583 8.825 11.7416 8.54167 12.0833 8.54167H15.4166C15.7583 8.54167 16.0416 8.825 16.0416 9.16667C16.0416 9.50833 15.7583 9.79167 15.4166 9.79167Z" fill="#919699"/>
<path d="M12.4999 13.125H12.0833C11.7416 13.125 11.4583 12.8417 11.4583 12.5C11.4583 12.1583 11.7416 11.875 12.0833 11.875H12.4999C12.8416 11.875 13.1249 12.1583 13.1249 12.5C13.1249 12.8417 12.8416 13.125 12.4999 13.125Z" fill="#919699"/>
<path d="M15.4167 13.125H15C14.6583 13.125 14.375 12.8417 14.375 12.5C14.375 12.1583 14.6583 11.875 15 11.875H15.4167C15.7583 11.875 16.0417 12.1583 16.0417 12.5C16.0417 12.8417 15.7583 13.125 15.4167 13.125Z" fill="#919699"/>
</svg>
