<svg width="186" height="160" viewBox="0 0 186 160" fill="none" xmlns="http://www.w3.org/2000/svg">
<path d="M96.2014 134.981C124.195 134.981 146.889 112.145 146.889 83.975C146.889 55.8053 124.195 32.9692 96.2014 32.9692C68.2077 32.9692 45.5143 55.8053 45.5143 83.975C45.5143 112.145 68.2077 134.981 96.2014 134.981Z" fill="#EAEEF9"/>
<path d="M114.292 29.1873C114.75 28.7665 114.782 28.0521 114.363 27.5917C113.945 27.1312 113.235 27.0991 112.778 27.5198C112.32 27.9406 112.288 28.655 112.706 29.1155C113.125 29.5759 113.834 29.6081 114.292 29.1873Z" fill="#EAEEF9"/>
<path fill-rule="evenodd" clip-rule="evenodd" d="M93.7879 134.676C93.857 133.788 94.1758 132.939 94.9457 132.173C95.699 131.424 96.4523 130.675 97.2056 129.676C98.9926 127.677 100.978 128.247 103.34 128.924C103.633 129.008 103.931 129.094 104.236 129.177C107.765 130.002 108.891 127.074 110.594 122.649C110.951 121.721 111.334 120.727 111.769 119.687C113.294 116.653 111.038 115.312 108.61 113.868C108.24 113.648 107.866 113.425 107.501 113.194C105.359 111.916 105.409 109.911 105.47 107.489C105.481 107.072 105.492 106.642 105.492 106.202C105.257 103.632 107.164 102.483 109.005 101.374C111.099 100.112 113.106 98.9034 111.769 95.7133C111.442 94.932 111.14 94.1805 110.853 93.4664C108.941 88.7022 107.697 85.6047 103.985 86.4734C103.657 86.5624 103.336 86.655 103.021 86.7456C100.689 87.4177 98.7245 87.984 96.9545 86.2236C96.4636 85.6744 95.9577 85.1997 95.4808 84.7522C94.0062 83.3686 92.8086 82.2449 93.188 79.9805C94.7488 73.3281 94.3297 73.1734 87.3604 70.5998C86.4808 70.275 85.497 69.9117 84.3997 69.4919C81.1938 68.2963 80.0487 70.2809 78.8474 72.3629C77.7905 74.1946 76.6902 76.1017 74.1047 75.9848C73.5171 75.9848 72.9486 76.0133 72.4028 76.0407C70.1504 76.1536 68.2868 76.247 67.074 74.2367C63.4888 68.4425 63.103 68.6145 56.1021 71.7357C55.2579 72.112 54.3175 72.5313 53.2638 72.9881C49.8142 74.4584 50.7168 77.3715 51.7008 80.5476C51.7196 80.6082 51.7384 80.6689 51.7572 80.7296C52.3533 83.1009 51.0627 84.3776 49.5028 85.9208C49.0913 86.3279 48.6611 86.7534 48.2419 87.2225C47.4987 88.0672 46.6434 88.4208 45.7351 88.5099C48.0576 113.642 68.4996 133.483 93.7879 134.676ZM67.5763 121.685C74.858 124.432 83.1442 120.936 85.9062 113.694C88.6683 106.452 85.153 98.2105 77.8712 95.4635C70.5894 92.7165 62.3032 96.2127 59.5412 103.455C56.7791 110.697 60.2945 118.938 67.5763 121.685Z" fill="url(#paint0_linear_56_24270)"/>
<path d="M131.221 67.1154C131.024 64.1315 131.418 62.1423 129.447 61.9434C128.067 61.7444 127.081 61.9434 126.489 60.7498C125.898 59.5563 125.109 58.5616 125.898 57.567C127.869 54.5832 127.278 54.7821 123.926 51.5993C121.758 49.61 120.772 53.7875 118.603 52.7928C117.42 52.1961 116.237 52.1961 115.843 50.8036C115.054 47.4219 115.054 47.8197 110.323 48.0186C108.548 48.0186 108.548 49.61 108.548 51.2014C108.351 52.5939 107.365 52.7928 105.985 53.3896C103.817 54.5832 102.437 50.6047 100.465 52.7928C99.4793 53.7875 98.6907 54.7821 97.9021 55.9756C97.3106 57.567 98.6907 57.9649 99.4793 59.3573C99.4793 59.3573 99.4793 59.3573 99.4793 59.5563C99.6764 59.9541 99.4793 60.352 99.4793 60.7498C99.4793 60.9487 99.2821 61.3466 99.2821 61.5455C98.8878 62.5401 98.8878 63.3358 97.7049 63.5348C94.3533 64.1315 94.7476 64.3305 94.9448 69.1046C95.1419 72.0885 98.6907 69.9003 99.6764 72.0885C100.071 72.8842 100.859 74.0778 100.465 74.8735C100.268 75.6692 99.4793 76.2659 99.2821 77.0616C98.2964 78.852 100.071 79.8466 101.845 81.438C104.014 83.4272 105 79.2498 107.168 80.2444C109.731 81.239 109.534 80.6423 110.126 83.6261C110.52 85.6154 112.886 85.0186 115.449 84.8197C118.406 84.6208 116.237 81.0401 118.406 80.0455C118.8 79.8466 119.392 79.6477 119.786 79.4487C120.969 78.852 121.758 79.6476 122.941 80.2444C124.715 81.438 125.701 79.6477 127.672 77.2606C128.855 75.8681 127.672 74.8735 126.687 73.6799C125.898 72.6853 126.489 71.6907 126.884 70.2982C127.672 68.3089 131.418 70.0993 131.221 67.1154ZM117.617 70.895C115.252 73.481 111.309 73.8788 108.548 71.4917C105.985 69.1046 105.591 65.1262 107.957 62.3412C110.323 59.7552 114.266 59.3573 117.026 61.7444C119.589 64.1315 119.983 68.11 117.617 70.895Z" fill="url(#paint1_linear_56_24270)"/>
<path d="M34.6936 82.9858C32.7683 83.935 31.9678 86.2709 32.9055 88.2031C33.8433 90.1353 36.1641 90.9321 38.0894 89.9829C40.0146 89.0337 40.8151 86.6978 39.8774 84.7656C38.9397 82.8334 36.6188 82.0365 34.6936 82.9858Z" fill="#EAEEF9"/>
<path d="M110.056 139.66C108.647 139.703 107.537 140.886 107.575 142.301C107.613 143.717 108.786 144.829 110.194 144.786C111.602 144.743 112.713 143.56 112.675 142.145C112.636 140.729 111.464 139.617 110.056 139.66Z" fill="#EAEEF9"/>
<path d="M102.358 146.125C101.401 146.154 100.645 146.958 100.671 147.921C100.697 148.884 101.495 149.64 102.452 149.611C103.41 149.581 104.165 148.777 104.139 147.815C104.113 146.852 103.316 146.096 102.358 146.125Z" fill="#EAEEF9"/>
<path d="M29.536 99.5422C28.7254 99.9418 28.3883 100.925 28.7832 101.739C29.178 102.552 30.1552 102.888 30.9658 102.488C31.7765 102.089 32.1135 101.105 31.7187 100.292C31.3239 99.478 30.3466 99.1425 29.536 99.5422Z" fill="#EAEEF9"/>
<path d="M62.279 134.161C61.7214 134.436 61.4896 135.113 61.7612 135.672C62.0327 136.232 62.7049 136.463 63.2624 136.188C63.82 135.913 64.0518 135.236 63.7803 134.677C63.5087 134.117 62.8366 133.886 62.279 134.161Z" fill="#EAEEF9"/>
<path d="M102.365 31.4007L90.5352 43.8402C86.8616 47.6538 80.9921 48.0992 77.3309 44.759C73.6698 41.4189 73.6115 35.6988 77.2851 31.8852L89.1147 19.4457C92.7883 15.6321 98.6578 15.1867 102.319 18.5268C106.017 21.7656 106.038 27.5871 102.365 31.4007Z" fill="url(#paint2_linear_56_24270)"/>
<path d="M99.5274 29.9562C101.846 27.46 101.75 23.6105 99.3123 21.358C96.8749 19.1055 93.0192 19.303 90.7005 21.7991C88.3818 24.2953 88.478 28.1449 90.9155 30.3974C93.353 32.6498 97.2087 32.4523 99.5274 29.9562Z" fill="white"/>
<g filter="url(#filter0_d_56_24270)">
<path d="M63.956 47.3452L60.6517 50.4517C60.2586 50.8126 59.6444 50.9376 59.1161 50.7643L55.1895 49.5412C54.6612 49.3679 54.2189 48.8962 54.1599 48.3652L53.2207 44.3996C53.0855 43.8654 53.2574 43.2687 53.6504 42.9079L56.9547 39.8013C57.1906 39.5848 57.2052 39.1324 56.9841 38.8966C56.9103 38.8179 56.7604 38.7361 56.6081 38.7297C53.6473 38.3024 50.7186 39.2355 48.596 41.1841C45.9207 43.7133 44.8819 47.5197 45.9119 51.0362L23.6615 71.5361C21.7723 73.3436 21.6007 76.2807 23.4438 78.2461C25.2131 80.1328 28.1837 80.2585 29.9943 78.5232L52.4806 57.8068C55.8027 58.8533 59.4145 58.0246 61.9326 55.6397C64.1338 53.6189 65.2194 50.7205 65.0077 47.8426C65.0199 47.4657 64.6464 47.2234 64.3417 47.2105C64.1894 47.204 64.1108 47.2762 63.956 47.3452ZM26.1216 75.6415C25.4581 74.9339 25.4948 73.803 26.2023 73.1535C26.9098 72.5039 27.9762 72.549 28.6397 73.2566C29.3032 73.9641 29.2665 75.095 28.559 75.7446C27.8515 76.3941 26.7851 76.349 26.1216 75.6415C26.1191 75.7169 26.1191 75.7169 26.1216 75.6415Z" fill="#D5DDEA"/>
</g>
<path opacity="0.4" d="M45.7908 55.251L29.3616 70.1519" stroke="#D6DCE8" stroke-miterlimit="10"/>
<path opacity="0.4" d="M48.4212 58.0059L31.9163 72.9023" stroke="#D6DCE8" stroke-miterlimit="10"/>
<path d="M156.32 49.9885C155.975 49.7683 155.457 49.778 154.968 49.9762C154.118 50.5401 153.04 50.277 152.509 49.5125C152.25 49.1773 152.179 48.7064 152.323 48.288C152.468 47.8697 152.296 47.4195 151.85 47.2201L150.93 46.6329L149.46 48.5876L131.982 37.4312C131.752 37.2844 131.609 37.0226 131.58 36.8342L131.509 36.3633C131.452 35.9865 131.208 35.7455 130.877 35.6195L126.362 33.9288L124.027 37.0334L127.331 40.3338C127.575 40.5748 127.906 40.7008 128.309 40.6176L128.813 40.5136C129.115 40.4513 129.33 40.5039 129.56 40.6507L147.038 51.8071L145.567 53.7618L146.487 54.349C146.832 54.5692 147.35 54.5595 147.739 54.3821C148.589 53.8182 149.667 54.0812 150.198 54.8458C150.457 55.181 150.528 55.6519 150.383 56.0703C150.239 56.4886 150.512 56.918 150.857 57.1382L163.39 65.1385C165.345 66.3863 168.266 65.7833 169.737 63.8286C169.737 63.8286 169.823 63.7136 169.809 63.6194C171.164 61.5913 170.679 59.069 168.724 57.8212L156.32 49.9885Z" fill="url(#paint3_linear_56_24270)"/>
<path opacity="0.4" d="M153.47 55.7739L162.899 62.0326" stroke="#D6DCE8" stroke-miterlimit="10"/>
<path opacity="0.4" d="M155.079 53.4741L164.508 59.7327" stroke="#D6DCE8" stroke-miterlimit="10"/>
<g filter="url(#filter1_d_56_24270)">
<path d="M145.631 84.126L123.529 97.8396C122.328 98.5849 121.963 100.142 122.708 101.343L136.422 123.445C137.167 124.646 138.724 125.011 139.926 124.266L162.027 110.552C163.229 109.807 163.593 108.25 162.848 107.048L149.134 84.9466C148.389 83.7454 146.832 83.3807 145.631 84.126Z" fill="#D5DDEA"/>
</g>
<path d="M147.243 93.0246L140.576 97.1611C139.396 96.0633 137.704 95.6158 136.159 96.0753C133.782 96.8018 132.462 99.3673 133.249 101.707L131.147 103.012C130.606 103.347 130.424 104.126 130.759 104.666C131.132 105.267 131.91 105.449 132.451 105.114L134.553 103.809C135.659 104.787 137.179 105.092 138.543 104.744C140.935 104.175 142.389 101.692 141.82 99.3004L148.547 95.1267C149.087 94.7913 149.27 94.0127 148.934 93.4722C148.622 92.8343 147.843 92.652 147.243 93.0246ZM139.509 100.402C139.538 100.716 139.47 101.008 139.304 101.278C139.221 101.412 139.198 101.51 139.078 101.584C138.935 101.756 138.852 101.89 138.672 102.002C137.748 102.659 136.521 102.422 135.864 101.499C135.827 101.439 135.827 101.439 135.79 101.379C135.193 100.418 135.527 99.2124 136.428 98.6535C137.329 98.0945 138.497 98.368 139.116 99.2316C139.339 99.592 139.503 99.9896 139.509 100.402ZM153.838 103.655L151.796 104.922C150.616 103.824 148.924 103.377 147.38 103.836C145.002 104.563 143.743 107.091 144.469 109.468L137.743 113.642C137.142 114.015 136.96 114.793 137.332 115.394C137.705 115.995 138.484 116.177 139.084 115.804L145.811 111.631C146.916 112.608 148.376 112.95 149.801 112.565C152.193 111.996 153.647 109.513 153.078 107.121L155.18 105.817C155.781 105.445 155.963 104.666 155.59 104.065C155.218 103.465 154.439 103.282 153.838 103.655ZM150.388 107.21C150.686 107.691 150.669 108.2 150.555 108.687C150.533 108.784 150.45 108.919 150.427 109.016C150.344 109.15 150.321 109.248 150.238 109.382C150.156 109.517 150.096 109.554 150.013 109.689C149.953 109.726 149.893 109.763 149.833 109.801C149.772 109.838 149.712 109.875 149.652 109.912C149.532 109.987 149.412 110.061 149.255 110.076C149.195 110.113 149.135 110.15 149.037 110.128C148.265 110.357 147.314 110.032 146.83 109.251C146.383 108.531 146.431 107.669 146.882 107.056C147.025 106.884 147.108 106.75 147.288 106.638C147.348 106.601 147.408 106.564 147.468 106.526C148.429 105.93 149.634 106.264 150.193 107.165C150.411 107.113 150.448 107.173 150.388 107.21Z" fill="white"/>
<defs>
<filter id="filter0_d_56_24270" x="0.14917" y="27.6274" width="86.8845" height="85.1196" filterUnits="userSpaceOnUse" color-interpolation-filters="sRGB">
<feFlood flood-opacity="0" result="BackgroundImageFix"/>
<feColorMatrix in="SourceAlpha" type="matrix" values="0 0 0 0 0 0 0 0 0 0 0 0 0 0 0 0 0 0 127 0" result="hardAlpha"/>
<feOffset dy="11"/>
<feGaussianBlur stdDeviation="11"/>
<feColorMatrix type="matrix" values="0 0 0 0 0.397708 0 0 0 0 0.47749 0 0 0 0 0.575 0 0 0 0.27 0"/>
<feBlend mode="normal" in2="BackgroundImageFix" result="effect1_dropShadow_56_24270"/>
<feBlend mode="normal" in="SourceGraphic" in2="effect1_dropShadow_56_24270" result="shape"/>
</filter>
<filter id="filter1_d_56_24270" x="100.322" y="72.7397" width="84.9122" height="84.9121" filterUnits="userSpaceOnUse" color-interpolation-filters="sRGB">
<feFlood flood-opacity="0" result="BackgroundImageFix"/>
<feColorMatrix in="SourceAlpha" type="matrix" values="0 0 0 0 0 0 0 0 0 0 0 0 0 0 0 0 0 0 127 0" result="hardAlpha"/>
<feOffset dy="11"/>
<feGaussianBlur stdDeviation="11"/>
<feColorMatrix type="matrix" values="0 0 0 0 0.397708 0 0 0 0 0.47749 0 0 0 0 0.575 0 0 0 0.27 0"/>
<feBlend mode="normal" in2="BackgroundImageFix" result="effect1_dropShadow_56_24270"/>
<feBlend mode="normal" in="SourceGraphic" in2="effect1_dropShadow_56_24270" result="shape"/>
</filter>
<linearGradient id="paint0_linear_56_24270" x1="79.0056" y1="71.4078" x2="79.0056" y2="108.198" gradientUnits="userSpaceOnUse">
<stop stop-color="#B0BACC"/>
<stop offset="1" stop-color="#969EAE"/>
</linearGradient>
<linearGradient id="paint1_linear_56_24270" x1="113.027" y1="49.1833" x2="113.027" y2="70.0451" gradientUnits="userSpaceOnUse">
<stop stop-color="#B0BACC"/>
<stop offset="1" stop-color="#969EAE"/>
</linearGradient>
<linearGradient id="paint2_linear_56_24270" x1="85.0051" y1="21.9027" x2="91.0865" y2="33.5136" gradientUnits="userSpaceOnUse">
<stop stop-color="#B0BACC"/>
<stop offset="1" stop-color="#969EAE"/>
</linearGradient>
<linearGradient id="paint3_linear_56_24270" x1="144.673" y1="31.5423" x2="149.128" y2="53.1252" gradientUnits="userSpaceOnUse">
<stop stop-color="#B0BACC"/>
<stop offset="1" stop-color="#969EAE"/>
</linearGradient>
</defs>
</svg>
