<svg width="160" height="160" viewBox="0 0 160 160" fill="none" xmlns="http://www.w3.org/2000/svg">
<path d="M81.5041 134.027C109.804 134.027 132.804 110.927 132.804 82.4266C132.804 53.9266 109.804 30.7266 81.5041 30.7266C53.2041 30.7266 30.2041 53.8266 30.2041 82.3266C30.2041 110.827 53.2041 134.027 81.5041 134.027Z" fill="#EAEEF9"/>
<path d="M119.304 39.4265L137.604 67.5265L137.904 67.8265L82.1042 136.527L26.6042 67.8265L27.1042 67.5265L45.1042 39.4265H119.304Z" fill="white"/>
<path d="M101.304 67.5265L82.1042 136.527L64.1042 67.5265L82.1042 39.4265L101.304 67.5265Z" fill="#E7EAF4"/>
<path d="M137.804 67.8265L82.1042 136.527L101.304 67.5265L119.304 39.4265L137.804 67.8265Z" fill="#DBDFEC"/>
<path d="M27.1042 67.5265L45.1042 39.4265L64.1042 67.5265H27.1042Z" fill="#F1F3FA"/>
<path d="M59.2042 60.4264L64.1042 58.9264C64.5042 58.8264 64.5042 58.3264 64.1042 58.2264L59.2042 56.7264C59.1042 56.7264 59.0042 56.6264 58.9042 56.4264L57.5042 51.6264C57.4042 51.2264 56.9042 51.2264 56.8042 51.6264L55.3042 56.5264C55.3042 56.6264 55.2042 56.7264 55.0042 56.8264L50.1042 58.3264C49.7042 58.4264 49.7042 58.9264 50.1042 59.0264L55.0042 60.5264C55.1042 60.5264 55.2042 60.6264 55.3042 60.8264L56.8042 65.7264C56.9042 66.1264 57.4042 66.1264 57.5042 65.7264L59.0042 60.8264C59.0042 60.5264 59.1042 60.4264 59.2042 60.4264Z" fill="#AAB2C5"/>
<path d="M24.6041 79.0264L28.0041 76.2264C28.2041 76.0264 28.1041 75.6264 27.8041 75.6264L23.4041 76.0264C23.3041 76.0264 23.2041 76.0264 23.1041 75.9264L20.3041 72.5264C20.1041 72.3264 19.7041 72.4264 19.7041 72.7264L20.1041 77.1264C20.1041 77.2264 20.1041 77.3264 20.0041 77.4264L16.6041 80.2264C16.4041 80.4264 16.5041 80.8264 16.8041 80.8264L21.2041 80.4264C21.3041 80.4264 21.4041 80.4264 21.5041 80.5264L24.3041 83.9264C24.5041 84.1264 24.9041 84.0264 24.9041 83.7264L24.5041 79.3264C24.4041 79.2264 24.5041 79.1264 24.6041 79.0264Z" fill="#AAB2C5"/>
<path d="M58.104 28.8264L60.404 27.0264C60.604 26.9264 60.504 26.6264 60.204 26.6264L57.304 26.9264C57.204 26.9264 57.204 26.9264 57.104 26.8264L55.304 24.5264C55.204 24.3264 54.904 24.4264 54.904 24.7264L55.204 27.6264C55.204 27.7264 55.204 27.7264 55.104 27.8264L52.804 29.6264C52.604 29.7264 52.704 30.0264 53.004 30.0264L55.904 29.7264C56.004 29.7264 56.004 29.7264 56.104 29.8264L57.904 32.1264C58.004 32.3264 58.304 32.2264 58.304 31.9264L58.004 29.0264C58.004 28.9264 58.004 28.8264 58.104 28.8264Z" fill="#AAB2C5"/>
<path d="M132.804 117.626L136.804 119.726C137.104 119.926 137.404 119.526 137.204 119.226L135.004 115.226C134.904 115.126 134.904 115.026 135.004 114.926L137.104 110.926C137.304 110.626 136.904 110.326 136.604 110.526L132.604 112.726C132.504 112.826 132.404 112.826 132.304 112.726L128.304 110.626C128.004 110.426 127.704 110.826 127.904 111.126L130.104 115.126C130.204 115.226 130.204 115.326 130.104 115.426L128.004 119.426C127.804 119.726 128.204 120.026 128.504 119.826L132.504 117.626C132.604 117.626 132.704 117.626 132.804 117.626Z" fill="#AAB2C5"/>
<path d="M49.0041 111.927L52.1041 113.527C52.3041 113.627 52.6041 113.427 52.4041 113.227L50.7041 110.227C50.7041 110.127 50.7041 110.027 50.7041 110.027L52.3041 106.927C52.4041 106.727 52.2041 106.427 52.0041 106.627L49.0041 108.327C48.9041 108.327 48.8041 108.327 48.8041 108.327L45.7041 106.727C45.5041 106.627 45.2041 106.827 45.4041 107.027L47.1041 110.027C47.1041 110.127 47.1041 110.227 47.1041 110.227L45.5041 113.327C45.4041 113.527 45.6041 113.827 45.8041 113.627L48.8041 111.927C48.9041 111.927 49.0041 111.927 49.0041 111.927Z" fill="#AAB2C5"/>
<path d="M46.9042 134.427L49.9042 135.927C50.1042 136.027 50.4042 135.827 50.2042 135.627L48.5042 132.727C48.5042 132.627 48.5042 132.527 48.5042 132.527L50.0042 129.527C50.1042 129.327 49.9042 129.027 49.7042 129.227L46.8042 130.827C46.7042 130.827 46.6042 130.827 46.6042 130.827L43.6042 129.327C43.4042 129.227 43.1042 129.427 43.3042 129.627L45.0042 132.527C45.0042 132.627 45.0042 132.727 45.0042 132.727L43.5042 135.727C43.4042 135.927 43.6042 136.227 43.8042 136.027L46.7042 134.327C46.8042 134.427 46.9042 134.427 46.9042 134.427Z" fill="#AAB2C5"/>
<path d="M103.804 29.2266L106.804 30.7266C107.004 30.8266 107.204 30.6266 107.104 30.4266L105.504 27.5266C105.504 27.4266 105.504 27.3266 105.504 27.3266L107.004 24.4266C107.104 24.2266 106.904 24.0266 106.704 24.1266L103.804 25.7266C103.704 25.7266 103.604 25.7266 103.604 25.7266L100.504 24.0266C100.304 23.9266 100.104 24.1266 100.204 24.3266L101.804 27.2266C101.804 27.3266 101.804 27.4266 101.804 27.4266L100.304 30.4266C100.204 30.6266 100.404 30.8266 100.604 30.7266L103.504 29.2266C103.604 29.1266 103.704 29.1266 103.804 29.2266Z" fill="#AAB2C5"/>
<path d="M137.804 67.8265L101.304 67.5265L119.304 39.4265L137.804 67.8265Z" fill="#F1F3FA"/>
<path d="M101.304 67.5265H64.1042L82.1042 39.4265L101.304 67.5265Z" fill="#F1F3FA"/>
<path d="M85.0041 41.3265L90.6041 39.6265C91.0041 39.5265 91.0041 38.9265 90.6041 38.8265L85.0041 37.1265C84.9041 37.1265 84.7041 37.0265 84.7041 36.8265L83.0041 31.2265C82.9041 30.8265 82.3041 30.8265 82.2041 31.2265L80.5041 36.8265C80.5041 36.9265 80.4041 37.1265 80.2041 37.1265L74.5041 38.8265C74.1041 38.9265 74.1041 39.5265 74.5041 39.6265L80.1041 41.3265C80.2041 41.3265 80.4041 41.4265 80.4041 41.6265L82.1041 47.2265C82.2041 47.6265 82.8041 47.6265 82.9041 47.2265L84.6041 41.6265C84.7041 41.5265 84.8041 41.4265 85.0041 41.3265Z" fill="#AAB2C5"/>
<path d="M139.504 68.6266L143.904 67.3266C144.204 67.2266 144.204 66.7266 143.904 66.7266L139.504 65.4266C139.404 65.4266 139.304 65.3266 139.304 65.2266L138.004 60.8266C137.904 60.5266 137.404 60.5266 137.404 60.8266L136.104 65.2266C136.104 65.3266 136.004 65.4266 135.904 65.4266L131.504 66.7266C131.204 66.8266 131.204 67.3266 131.504 67.3266L135.904 68.6266C136.004 68.6266 136.104 68.7266 136.104 68.8266L137.404 73.2266C137.504 73.5266 138.004 73.5266 138.004 73.2266L139.304 68.8266C139.304 68.7266 139.404 68.6266 139.504 68.6266Z" fill="#AAB2C5"/>
</svg>