<svg xmlns="http://www.w3.org/2000/svg" width="25" height="25" viewBox="0 0 25 25" fill="none">
  <path d="M21.5741 18.3052H20.8142V10.4385C20.8142 6.70252 16.9344 3.61872 13.2814 3.22399V2.34375C13.2814 1.91231 12.932 1.5625 12.5002 1.5625C12.0683 1.5625 11.7189 1.91231 11.7189 2.34375V3.22094C8.07612 3.60637 4.18616 6.6956 4.18616 10.4385V18.3052H3.42627C2.99445 18.3052 2.64502 18.655 2.64502 19.0865C2.64502 19.5179 2.99445 19.8677 3.42627 19.8677H21.5741C22.0059 19.8677 22.3553 19.5179 22.3553 19.0865C22.3553 18.655 22.0059 18.3052 21.5741 18.3052ZM5.74866 18.3052V10.4385C5.74866 7.29713 9.34617 4.74167 12.5124 4.74167C15.6542 4.74167 19.2517 7.29713 19.2517 10.4385V18.3052H5.74866Z" fill="#919699"/>
  <path d="M14.9611 21.875H10.0127C9.58087 21.875 9.23145 22.2248 9.23145 22.6562C9.23145 23.0877 9.58087 23.4375 10.0127 23.4375H14.9611C15.3929 23.4375 15.7424 23.0877 15.7424 22.6562C15.7424 22.2248 15.3929 21.875 14.9611 21.875Z" fill="#919699"/>
</svg>