<svg width="24" height="24" viewBox="0 0 24 24" fill="#202C38" xmlns="http://www.w3.org/2000/svg">
<path d="M20.7109 17.573H19.9814V10.021C19.9814 6.43442 16.2569 3.47397 12.75 3.09503V2.25C12.75 1.83582 12.4146 1.5 12 1.5C11.5854 1.5 11.25 1.83582 11.25 2.25V3.0921C7.75291 3.46211 4.01855 6.42778 4.01855 10.021V17.573H3.28906C2.87451 17.573 2.53906 17.9088 2.53906 18.323C2.53906 18.7372 2.87451 19.073 3.28906 19.073H20.7109C21.1255 19.073 21.4609 18.7372 21.4609 18.323C21.4609 17.9088 21.1255 17.573 20.7109 17.573ZM5.51855 17.573V10.021C5.51855 7.00525 8.97217 4.552 12.0117 4.552C15.0278 4.552 18.4814 7.00525 18.4814 10.021V17.573H5.51855Z" />
<path d="M14.3628 21H9.6123C9.19775 21 8.8623 21.3358 8.8623 21.75C8.8623 22.1642 9.19775 22.5 9.6123 22.5H14.3628C14.7773 22.5 15.1128 22.1642 15.1128 21.75C15.1128 21.3358 14.7773 21 14.3628 21Z" />
</svg>
