<svg width="161" height="160" viewBox="0 0 161 160" fill="none" xmlns="http://www.w3.org/2000/svg">
<path d="M84.259 139.633C112.259 139.633 134.959 116.933 134.959 88.8333C134.959 60.7333 112.159 38.0333 84.259 38.0333C56.259 38.0333 33.559 60.7333 33.559 88.8333C33.559 116.933 56.259 139.633 84.259 139.633Z" fill="#EAEEF9"/>
<path d="M138.109 121.61C140.373 121.61 142.209 119.775 142.209 117.51C142.209 115.246 140.373 113.41 138.109 113.41C135.845 113.41 134.009 115.246 134.009 117.51C134.009 119.775 135.845 121.61 138.109 121.61Z" fill="#EAEEF9"/>
<path d="M144.109 105.61C145.655 105.61 146.909 104.357 146.909 102.81C146.909 101.264 145.655 100.01 144.109 100.01C142.563 100.01 141.309 101.264 141.309 102.81C141.309 104.357 142.563 105.61 144.109 105.61Z" fill="#EAEEF9"/>
<path d="M36.259 55.4333C37.8054 55.4333 39.059 54.1797 39.059 52.6333C39.059 51.0869 37.8054 49.8333 36.259 49.8333C34.7126 49.8333 33.459 51.0869 33.459 52.6333C33.459 54.1797 34.7126 55.4333 36.259 55.4333Z" fill="#EAEEF9"/>
<path d="M19.159 109.433C22.0309 109.433 24.359 107.105 24.359 104.233C24.359 101.361 22.0309 99.0333 19.159 99.0333C16.2871 99.0333 13.959 101.361 13.959 104.233C13.959 107.105 16.2871 109.433 19.159 109.433Z" fill="#EAEEF9"/>
<path d="M90.6203 107.251H79.3531C76.7424 107.251 74.5439 109.66 74.5439 112.52V118.691C74.5439 125.013 79.2157 130.131 84.9867 130.131C90.7577 130.131 95.4294 125.013 95.4294 118.691V112.52C95.4294 109.509 93.231 107.251 90.6203 107.251Z" fill="white"/>
<g filter="url(#filter0_d_99_42483)">
<path fill-rule="evenodd" clip-rule="evenodd" d="M89.6203 48.1172C100.645 50.6673 108.857 60.5407 108.857 72.3398V75.4992C108.857 102.148 128.918 119.593 128.918 119.593H38.918C38.918 119.593 59.1164 102.148 59.1164 75.4992V72.3398C59.1164 60.5407 67.3284 50.6673 78.3531 48.1172V47.0651C78.3531 43.9058 80.8264 41.4332 83.9867 41.4332C87.147 41.4332 89.6203 43.9058 89.6203 47.0651V48.1172Z" fill="url(#paint0_linear_99_42483)"/>
</g>
<path d="M73.544 86.3508C70.1089 86.3508 67.2234 84.153 66.1242 80.9937C65.8494 80.3068 66.2616 79.62 66.9486 79.3453C67.6356 79.0706 68.3226 79.4827 68.5974 80.1695C69.2845 82.2299 71.3455 83.7409 73.544 83.7409C75.7425 83.7409 77.8036 82.3673 78.4906 80.1695C78.7654 79.4827 79.4524 79.0706 80.1394 79.3453C80.8265 79.62 81.2387 80.3068 80.9639 80.9937C79.8646 84.2904 76.9791 86.3508 73.544 86.3508Z" fill="#ADB6C8"/>
<path d="M94.2921 86.3508C90.8569 86.3508 87.9714 84.153 86.8722 80.9937C86.5974 80.3068 87.0096 79.62 87.6966 79.3453C88.3837 79.0706 89.0707 79.4827 89.3455 80.1695C90.0325 82.2299 92.0936 83.7409 94.2921 83.7409C96.4905 83.7409 98.5516 82.3673 99.2386 80.1695C99.5134 79.4827 100.2 79.0706 100.887 79.3453C101.574 79.62 101.987 80.3068 101.712 80.9937C100.613 84.2904 97.7272 86.3508 94.2921 86.3508Z" fill="#ADB6C8"/>
<path d="M83.9867 103.169C85.7321 103.169 87.147 101.755 87.147 100.01C87.147 98.2653 85.7321 96.8508 83.9867 96.8508C82.2413 96.8508 80.8264 98.2653 80.8264 100.01C80.8264 101.755 82.2413 103.169 83.9867 103.169Z" fill="#ADB6C8"/>
<path d="M100.921 25.6621V21.0125H118.891V25.6621L106.629 40.4565H119.102V45.1062H100.287V40.4565L112.549 25.6621H100.921Z" fill="url(#paint1_linear_99_42483)"/>
<path d="M115.72 60.5346V57.5757H127.347V60.5346L119.525 70.0453H127.559V73.0042H115.297V70.0453L123.119 60.5346H115.72Z" fill="url(#paint2_linear_99_42483)"/>
<defs>
<filter id="filter0_d_99_42483" x="16.918" y="30.4332" width="134" height="122.159" filterUnits="userSpaceOnUse" color-interpolation-filters="sRGB">
<feFlood flood-opacity="0" result="BackgroundImageFix"/>
<feColorMatrix in="SourceAlpha" type="matrix" values="0 0 0 0 0 0 0 0 0 0 0 0 0 0 0 0 0 0 127 0" result="hardAlpha"/>
<feOffset dy="11"/>
<feGaussianBlur stdDeviation="11"/>
<feColorMatrix type="matrix" values="0 0 0 0 0.397708 0 0 0 0 0.47749 0 0 0 0 0.575 0 0 0 0.27 0"/>
<feBlend mode="normal" in2="BackgroundImageFix" result="effect1_dropShadow_99_42483"/>
<feBlend mode="normal" in="SourceGraphic" in2="effect1_dropShadow_99_42483" result="shape"/>
</filter>
<linearGradient id="paint0_linear_99_42483" x1="83.8886" y1="39.6253" x2="83.8886" y2="120.435" gradientUnits="userSpaceOnUse">
<stop stop-color="#FDFEFF"/>
<stop offset="0.9964" stop-color="#ECF0F5"/>
</linearGradient>
<linearGradient id="paint1_linear_99_42483" x1="109.696" y1="21.8494" x2="109.696" y2="35.373" gradientUnits="userSpaceOnUse">
<stop stop-color="#B0BACC"/>
<stop offset="1" stop-color="#969EAE"/>
</linearGradient>
<linearGradient id="paint2_linear_99_42483" x1="121.429" y1="58.1117" x2="121.429" y2="66.7715" gradientUnits="userSpaceOnUse">
<stop stop-color="#B0BACC"/>
<stop offset="1" stop-color="#969EAE"/>
</linearGradient>
</defs>
</svg>
