<svg width="20" height="20" viewBox="0 0 20 20" fill="none" xmlns="http://www.w3.org/2000/svg">
<path d="M15 8.95817C14.6583 8.95817 14.375 8.67484 14.375 8.33317V6.6665C14.375 4.0415 13.6333 2.2915 10 2.2915C6.36667 2.2915 5.625 4.0415 5.625 6.6665V8.33317C5.625 8.67484 5.34167 8.95817 5 8.95817C4.65833 8.95817 4.375 8.67484 4.375 8.33317V6.6665C4.375 4.24984 4.95833 1.0415 10 1.0415C15.0417 1.0415 15.625 4.24984 15.625 6.6665V8.33317C15.625 8.67484 15.3417 8.95817 15 8.95817Z" fill="#202C38"/>
<path d="M14.1667 18.9585H5.83342C2.15841 18.9585 1.04175 17.8418 1.04175 14.1668V12.5002C1.04175 8.82516 2.15841 7.7085 5.83342 7.7085H14.1667C17.8417 7.7085 18.9584 8.82516 18.9584 12.5002V14.1668C18.9584 17.8418 17.8417 18.9585 14.1667 18.9585ZM5.83342 8.9585C2.85008 8.9585 2.29175 9.52516 2.29175 12.5002V14.1668C2.29175 17.1418 2.85008 17.7085 5.83342 17.7085H14.1667C17.1501 17.7085 17.7084 17.1418 17.7084 14.1668V12.5002C17.7084 9.52516 17.1501 8.9585 14.1667 8.9585H5.83342Z" fill="#202C38"/>
<path d="M6.66659 14.1667C6.55825 14.1667 6.44991 14.1417 6.34991 14.1001C6.24158 14.0584 6.15826 14 6.07493 13.925C5.92493 13.7667 5.83325 13.5584 5.83325 13.3334C5.83325 13.2251 5.85824 13.1167 5.89991 13.0167C5.94157 12.9084 5.99993 12.8251 6.07493 12.7417C6.15826 12.6667 6.24158 12.6084 6.34991 12.5667C6.64991 12.4334 7.02491 12.5084 7.25824 12.7417C7.33324 12.8251 7.3916 12.9167 7.43326 13.0167C7.47493 13.1167 7.49992 13.2251 7.49992 13.3334C7.49992 13.5501 7.40824 13.7667 7.25824 13.925C7.09991 14.075 6.88325 14.1667 6.66659 14.1667Z" fill="#202C38"/>
<path d="M10.0001 14.1669C9.78341 14.1669 9.56676 14.0752 9.40842 13.9252C9.25842 13.7669 9.16675 13.5586 9.16675 13.3336C9.16675 13.2253 9.1834 13.1169 9.2334 13.0169C9.27507 12.9169 9.33342 12.8253 9.40842 12.7419C9.60009 12.5503 9.89175 12.4586 10.1584 12.5169C10.2167 12.5252 10.2668 12.5419 10.3168 12.5669C10.3668 12.5836 10.4167 12.6086 10.4667 12.6419C10.5084 12.6669 10.5501 12.7086 10.5917 12.7419C10.6667 12.8253 10.7251 12.9169 10.7668 13.0169C10.8084 13.1169 10.8334 13.2253 10.8334 13.3336C10.8334 13.5586 10.7417 13.7669 10.5917 13.9252C10.5501 13.9586 10.5084 13.9919 10.4667 14.0252C10.4167 14.0586 10.3668 14.0836 10.3168 14.1003C10.2668 14.1253 10.2167 14.1419 10.1584 14.1503C10.1084 14.1586 10.0501 14.1669 10.0001 14.1669Z" fill="#202C38"/>
<path d="M13.3333 14.1669C13.1083 14.1669 12.9 14.0752 12.7417 13.9252C12.6667 13.8419 12.6083 13.7503 12.5667 13.6503C12.525 13.5503 12.5 13.4419 12.5 13.3336C12.5 13.1169 12.5917 12.9003 12.7417 12.7419C12.7833 12.7086 12.825 12.6753 12.8667 12.6419C12.9167 12.6086 12.9667 12.5836 13.0167 12.5669C13.0667 12.5419 13.1167 12.5252 13.1667 12.5169C13.4417 12.4586 13.725 12.5503 13.925 12.7419C14.075 12.9003 14.1667 13.1086 14.1667 13.3336C14.1667 13.4419 14.1417 13.5503 14.1 13.6503C14.0583 13.7586 14 13.8419 13.925 13.9252C13.7667 14.0752 13.55 14.1669 13.3333 14.1669Z" fill="#202C38"/>
</svg>
