<svg width="20" height="20" viewBox="0 0 20 20" fill="none" xmlns="http://www.w3.org/2000/svg">
<path d="M18.3333 7.7085H1.66663C1.32496 7.7085 1.04163 7.42516 1.04163 7.0835C1.04163 6.74183 1.32496 6.4585 1.66663 6.4585H18.3333C18.675 6.4585 18.9583 6.74183 18.9583 7.0835C18.9583 7.42516 18.675 7.7085 18.3333 7.7085Z" fill="#919699"/>
<path d="M6.66667 14.375H5C4.65833 14.375 4.375 14.0917 4.375 13.75C4.375 13.4083 4.65833 13.125 5 13.125H6.66667C7.00833 13.125 7.29167 13.4083 7.29167 13.75C7.29167 14.0917 7.00833 14.375 6.66667 14.375Z" fill="#919699"/>
<path d="M12.0833 14.375H8.75C8.40833 14.375 8.125 14.0917 8.125 13.75C8.125 13.4083 8.40833 13.125 8.75 13.125H12.0833C12.425 13.125 12.7083 13.4083 12.7083 13.75C12.7083 14.0917 12.425 14.375 12.0833 14.375Z" fill="#919699"/>
<path d="M14.6333 17.7082H5.36663C2.04996 17.7082 1.04163 16.7082 1.04163 13.4248V6.57484C1.04163 3.2915 2.04996 2.2915 5.36663 2.2915H14.625C17.9416 2.2915 18.95 3.2915 18.95 6.57484V13.4165C18.9583 16.7082 17.95 17.7082 14.6333 17.7082ZM5.36663 3.5415C2.74996 3.5415 2.29163 3.9915 2.29163 6.57484V13.4165C2.29163 15.9998 2.74996 16.4498 5.36663 16.4498H14.625C17.2416 16.4498 17.7 15.9998 17.7 13.4165V6.57484C17.7 3.9915 17.2416 3.5415 14.625 3.5415H5.36663Z" fill="#919699"/>
</svg>
