<svg width="16" height="16" viewBox="0 0 16 16" fill="none" xmlns="http://www.w3.org/2000/svg">
<rect width="16" height="16" rx="8" fill="#FFC42C"/>
<path d="M8.07404 11.3333C8.40132 11.3333 8.66663 11.068 8.66663 10.7407C8.66663 10.4134 8.40132 10.1481 8.07404 10.1481C7.74676 10.1481 7.48145 10.4134 7.48145 10.7407C7.48145 11.068 7.74676 11.3333 8.07404 11.3333Z" fill="white"/>
<path fill-rule="evenodd" clip-rule="evenodd" d="M7.33331 5.4074L7.62961 8.96295C7.62961 9.20829 7.82872 9.4074 8.07405 9.4074C8.31939 9.4074 8.5185 9.20829 8.5185 8.96295L8.81479 5.4074C8.81479 5.16206 8.66665 4.66666 8.07405 4.66666C7.48146 4.66666 7.33331 5.16206 7.33331 5.4074Z" fill="white"/>
</svg>
