<svg width="16" height="16" viewBox="0 0 16 16" fill="none" xmlns="http://www.w3.org/2000/svg">
<path d="M12.947 7.83331H10.667C10.3937 7.83331 10.167 7.60665 10.167 7.33331V2.67331C10.167 2.17998 10.3603 1.71998 10.707 1.37331C11.0537 1.02665 11.5137 0.833313 12.007 0.833313H12.0137C12.847 0.83998 13.6337 1.16665 14.2337 1.75998C14.8337 2.36665 15.1603 3.16665 15.1603 3.99998V5.61331C15.167 6.93998 14.2737 7.83331 12.947 7.83331ZM11.167 6.83331H12.947C13.7203 6.83331 14.167 6.38665 14.167 5.61331V3.99998C14.167 3.42665 13.9403 2.87998 13.5337 2.46665C13.127 2.06665 12.5803 1.83998 12.0137 1.83331C12.0137 1.83331 12.0137 1.83331 12.007 1.83331C11.787 1.83331 11.5737 1.91998 11.4137 2.07998C11.2537 2.23998 11.167 2.44665 11.167 2.67331V6.83331Z" fill="#202C38"/>
<path d="M5.99967 15.5533C5.68634 15.5533 5.39301 15.4333 5.17301 15.2066L4.06634 14.0933C4.00634 14.0333 3.91301 14.0266 3.84634 14.08L2.69967 14.9333C2.34634 15.2 1.87967 15.2466 1.47967 15.0466C1.07967 14.8466 0.833008 14.4466 0.833008 14V3.99998C0.833008 1.98665 1.98634 0.833313 3.99967 0.833313H11.9997C12.273 0.833313 12.4997 1.05998 12.4997 1.33331C12.4997 1.60665 12.273 1.83331 11.9997 1.83331C11.5397 1.83331 11.1663 2.20665 11.1663 2.66665V14C11.1663 14.4466 10.9197 14.8466 10.5197 15.0466C10.1197 15.2466 9.65301 15.2066 9.29967 14.94L8.15967 14.0866C8.09301 14.0333 7.99967 14.0466 7.94634 14.1L6.82634 15.22C6.60634 15.4333 6.31301 15.5533 5.99967 15.5533ZM3.93967 13.0466C4.24634 13.0466 4.54634 13.16 4.77301 13.3933L5.87967 14.5066C5.91967 14.5466 5.97301 14.5533 5.99967 14.5533C6.02634 14.5533 6.07967 14.5466 6.11967 14.5066L7.23967 13.3866C7.65301 12.9733 8.30634 12.9333 8.76634 13.2866L9.89968 14.1333C9.97301 14.1866 10.0397 14.1666 10.073 14.1466C10.1063 14.1266 10.1663 14.0866 10.1663 14V2.66665C10.1663 2.36665 10.2397 2.07998 10.3663 1.83331H3.99967C2.51967 1.83331 1.83301 2.51998 1.83301 3.99998V14C1.83301 14.0933 1.89301 14.1333 1.92634 14.1533C1.96634 14.1733 2.03301 14.1866 2.09967 14.1333L3.23967 13.28C3.44634 13.1266 3.69301 13.0466 3.93967 13.0466Z" fill="#202C38"/>
<path d="M8 9.17334H6C5.72667 9.17334 5.5 8.94667 5.5 8.67334C5.5 8.40001 5.72667 8.17334 6 8.17334H8C8.27333 8.17334 8.5 8.40001 8.5 8.67334C8.5 8.94667 8.27333 9.17334 8 9.17334Z" fill="#202C38"/>
<path d="M8 6.50665H6C5.72667 6.50665 5.5 6.27999 5.5 6.00665C5.5 5.73332 5.72667 5.50665 6 5.50665H8C8.27333 5.50665 8.5 5.73332 8.5 6.00665C8.5 6.27999 8.27333 6.50665 8 6.50665Z" fill="#202C38"/>
<path d="M3.98014 6.67336C3.61348 6.67336 3.31348 6.37336 3.31348 6.00669C3.31348 5.64003 3.61348 5.34003 3.98014 5.34003C4.34681 5.34003 4.64681 5.64003 4.64681 6.00669C4.64681 6.37336 4.34681 6.67336 3.98014 6.67336Z" fill="#202C38"/>
<path d="M3.98014 9.33999C3.61348 9.33999 3.31348 9.03999 3.31348 8.67332C3.31348 8.30665 3.61348 8.00665 3.98014 8.00665C4.34681 8.00665 4.64681 8.30665 4.64681 8.67332C4.64681 9.03999 4.34681 9.33999 3.98014 9.33999Z" fill="#202C38"/>
</svg>
