<svg xmlns="http://www.w3.org/2000/svg" width="25" height="24" viewBox="0 0 25 24" fill="none">
  <path d="M17.3691 18.6188L17.7301 17.2717L19.0772 16.9107L20.0634 17.8969L19.7024 19.244L18.3553 19.605L17.3691 18.6188Z" stroke="#919699" stroke-miterlimit="10"/>
  <path d="M9.85742 6.71127C9.94008 6.40212 9.98441 6.07738 9.98441 5.74217C9.98441 3.67543 8.30894 1.99996 6.2422 1.99996C4.17543 1.99996 2.5 3.67543 2.5 5.74217C2.5 7.8089 4.17543 9.48437 6.2422 9.48437C6.57738 9.48437 6.90216 9.44005 7.21127 9.35743L9.87464 12.0208L12.5208 9.37464L9.85742 6.71127Z" stroke="#919699" stroke-width="1.35" stroke-miterlimit="10"/>
  <path d="M18.7164 14.5156C18.3812 14.5156 18.0565 14.5599 17.7473 14.6426L15.1671 12.0624L12.521 14.7085L15.1012 17.2887C15.0185 17.5978 14.9742 17.9226 14.9742 18.2578C14.9742 20.3245 16.6496 22 18.7164 22C20.7832 22 22.4586 20.3245 22.4586 18.2578C22.4586 16.1911 20.7832 14.5156 18.7164 14.5156Z" stroke="#919699" stroke-width="1.35" stroke-miterlimit="10"/>
  <path d="M4.89502 6.1032L5.25598 4.75609L6.60309 4.39509L7.58924 5.38129L7.22828 6.72836L5.88117 7.08936L4.89502 6.1032Z" stroke="#919699" stroke-miterlimit="10"/>
  <path d="M9.85665 17.2895L17.7475 9.3986C18.9959 9.73186 20.3828 9.40941 21.3622 8.43012C22.5143 7.27798 22.7579 5.56163 22.0934 4.17062L20.0391 6.22496L18.716 5.78392L18.275 4.46088L20.3293 2.4065C18.9384 1.74213 17.222 1.98567 16.0699 3.13781C15.0905 4.11714 14.7681 5.50413 15.1014 6.75245L7.21049 14.6433C5.96218 14.31 4.57524 14.6325 3.5959 15.6118C2.44376 16.7639 2.20018 18.4803 2.86463 19.8713L4.91898 17.8169L6.24201 18.2579L6.68305 19.581L4.62871 21.6354C6.01973 22.2998 7.73607 22.0562 8.88817 20.9041C9.8675 19.9248 10.19 18.5378 9.85665 17.2895Z" stroke="#919699" stroke-width="1.35" stroke-miterlimit="10"/>
</svg>