<svg width="25" height="24" viewBox="0 0 25 24" fill="none" stroke="#202C38" xmlns="http://www.w3.org/2000/svg">
<path d="M17.6191 18.6188L17.98 17.2717L19.3271 16.9107L20.3133 17.8969L19.9523 19.2439L18.6052 19.6049L17.6191 18.6188Z"  stroke-miterlimit="10"/>
<path d="M10.1074 6.7113C10.1901 6.40216 10.2344 6.07742 10.2344 5.7422C10.2344 3.67546 8.55894 1.99999 6.4922 1.99999C4.42543 1.99999 2.75 3.67546 2.75 5.7422C2.75 7.80893 4.42543 9.4844 6.4922 9.4844C6.82738 9.4844 7.15216 9.44008 7.46127 9.35746L10.1246 12.0208L12.7708 9.37467L10.1074 6.7113Z"  stroke-width="1.35" stroke-miterlimit="10"/>
<path d="M18.9662 14.5156C18.6311 14.5156 18.3063 14.5599 17.9971 14.6426L15.417 12.0624L12.7708 14.7085L15.351 17.2887C15.2684 17.5978 15.224 17.9226 15.224 18.2578C15.224 20.3245 16.8995 22 18.9662 22C21.033 22 22.7084 20.3245 22.7084 18.2578C22.7084 16.1911 21.033 14.5156 18.9662 14.5156Z"  stroke-width="1.35" stroke-miterlimit="10"/>
<path d="M5.14508 6.1032L5.50604 4.75609L6.85315 4.39509L7.8393 5.38129L7.47834 6.72836L6.13123 7.08936L5.14508 6.1032Z"  stroke-miterlimit="10"/>
<path d="M10.1066 17.2895L17.9975 9.3986C19.2459 9.73186 20.6328 9.40941 21.6122 8.43012C22.7643 7.27798 23.0079 5.56163 22.3434 4.17062L20.2891 6.22496L18.966 5.78392L18.525 4.46088L20.5793 2.4065C19.1884 1.74213 17.472 1.98567 16.3199 3.13781C15.3405 4.11714 15.0181 5.50413 15.3514 6.75245L7.46049 14.6433C6.21218 14.31 4.82524 14.6325 3.8459 15.6118C2.69376 16.7639 2.45018 18.4803 3.11463 19.8713L5.16898 17.8169L6.49201 18.2579L6.93305 19.581L4.87871 21.6354C6.26973 22.2998 7.98607 22.0562 9.13817 20.9041C10.1175 19.9248 10.44 18.5378 10.1066 17.2895Z"  stroke-width="1.35" stroke-miterlimit="10"/>
</svg>
