<svg width="16" height="16" viewBox="0 0 16 16" fill="none" xmlns="http://www.w3.org/2000/svg">
<mask id="path-1-inside-1_524_3390" fill="white">
<path d="M7.66671 14.5C3.90004 14.5 0.833374 11.4333 0.833374 7.66668C0.833374 3.90001 3.90004 0.833344 7.66671 0.833344C11.4334 0.833344 14.5 3.90001 14.5 7.66668C14.5 11.4333 11.4334 14.5 7.66671 14.5ZM7.66671 1.83334C4.44671 1.83334 1.83337 4.45334 1.83337 7.66668C1.83337 10.88 4.44671 13.5 7.66671 13.5C10.8867 13.5 13.5 10.88 13.5 7.66668C13.5 4.45334 10.8867 1.83334 7.66671 1.83334Z"/>
</mask>
<path d="M7.66671 14.5C3.90004 14.5 0.833374 11.4333 0.833374 7.66668C0.833374 3.90001 3.90004 0.833344 7.66671 0.833344C11.4334 0.833344 14.5 3.90001 14.5 7.66668C14.5 11.4333 11.4334 14.5 7.66671 14.5ZM7.66671 1.83334C4.44671 1.83334 1.83337 4.45334 1.83337 7.66668C1.83337 10.88 4.44671 13.5 7.66671 13.5C10.8867 13.5 13.5 10.88 13.5 7.66668C13.5 4.45334 10.8867 1.83334 7.66671 1.83334Z" fill="#919699"/>
<path d="M7.66671 13.5C4.45233 13.5 1.83337 10.8811 1.83337 7.66668H-0.166626C-0.166626 11.9856 3.34776 15.5 7.66671 15.5V13.5ZM1.83337 7.66668C1.83337 4.4523 4.45233 1.83334 7.66671 1.83334V-0.166656C3.34776 -0.166656 -0.166626 3.34773 -0.166626 7.66668H1.83337ZM7.66671 1.83334C10.8811 1.83334 13.5 4.4523 13.5 7.66668H15.5C15.5 3.34773 11.9857 -0.166656 7.66671 -0.166656V1.83334ZM13.5 7.66668C13.5 10.8811 10.8811 13.5 7.66671 13.5V15.5C11.9857 15.5 15.5 11.9856 15.5 7.66668H13.5ZM7.66671 0.833344C3.89368 0.833344 0.833374 3.9018 0.833374 7.66668H2.83337C2.83337 5.00488 4.99974 2.83334 7.66671 2.83334V0.833344ZM0.833374 7.66668C0.833374 11.4316 3.89368 14.5 7.66671 14.5V12.5C4.99974 12.5 2.83337 10.3285 2.83337 7.66668H0.833374ZM7.66671 14.5C11.4397 14.5 14.5 11.4316 14.5 7.66668H12.5C12.5 10.3285 10.3337 12.5 7.66671 12.5V14.5ZM14.5 7.66668C14.5 3.9018 11.4397 0.833344 7.66671 0.833344V2.83334C10.3337 2.83334 12.5 5.00488 12.5 7.66668H14.5Z" fill="#919699" mask="url(#path-1-inside-1_524_3390)"/>
<mask id="path-3-inside-2_524_3390" fill="white">
<path d="M14.6666 15.1667C14.54 15.1667 14.4133 15.12 14.3133 15.02L12.98 13.6867C12.7866 13.4933 12.7866 13.1733 12.98 12.98C13.1733 12.7867 13.4933 12.7867 13.6866 12.98L15.02 14.3133C15.2133 14.5067 15.2133 14.8267 15.02 15.02C14.92 15.12 14.7933 15.1667 14.6666 15.1667Z"/>
</mask>
<path d="M14.6666 15.1667C14.54 15.1667 14.4133 15.12 14.3133 15.02L12.98 13.6867C12.7866 13.4933 12.7866 13.1733 12.98 12.98C13.1733 12.7867 13.4933 12.7867 13.6866 12.98L15.02 14.3133C15.2133 14.5067 15.2133 14.8267 15.02 15.02C14.92 15.12 14.7933 15.1667 14.6666 15.1667Z" fill="#919699"/>
<path d="M14.3133 15.02L13.6062 15.7271L14.3133 15.02ZM12.98 13.6867L13.6871 12.9796L12.98 13.6867ZM13.6866 12.98L12.9795 13.6871L13.6866 12.98ZM15.02 14.3133L15.7271 13.6062L15.02 14.3133ZM14.6666 14.1667C14.7909 14.1667 14.923 14.2155 15.0204 14.3129L13.6062 15.7271C13.9036 16.0245 14.2891 16.1667 14.6666 16.1667V14.1667ZM15.0204 14.3129L13.6871 12.9796L12.2729 14.3938L13.6062 15.7271L15.0204 14.3129ZM13.6871 12.9796C13.8843 13.1767 13.8843 13.4899 13.6871 13.6871L12.2729 12.2729C11.689 12.8567 11.689 13.8099 12.2729 14.3938L13.6871 12.9796ZM13.6871 13.6871C13.4899 13.8843 13.1767 13.8843 12.9795 13.6871L14.3937 12.2729C13.8099 11.689 12.8567 11.689 12.2729 12.2729L13.6871 13.6871ZM12.9795 13.6871L14.3129 15.0204L15.7271 13.6062L14.3937 12.2729L12.9795 13.6871ZM14.3129 15.0204C14.1157 14.8232 14.1157 14.5101 14.3129 14.3129L15.7271 15.7271C16.3109 15.1432 16.3109 14.1901 15.7271 13.6062L14.3129 15.0204ZM14.3129 14.3129C14.4103 14.2155 14.5424 14.1667 14.6666 14.1667V16.1667C15.0442 16.1667 15.4296 16.0245 15.7271 15.7271L14.3129 14.3129Z" fill="#919699" mask="url(#path-3-inside-2_524_3390)"/>
</svg>
