<svg width="80" height="80" viewBox="0 0 80 80" fill="none" xmlns="http://www.w3.org/2000/svg">
<path fill-rule="evenodd" clip-rule="evenodd" d="M39.9994 6.66602C58.4081 6.66602 73.3327 21.5902 73.3327 39.9994C73.3327 58.4085 58.4081 73.3327 39.9994 73.3327C21.5906 73.3327 6.66602 58.4079 6.66602 39.9994C6.66602 21.5908 21.5904 6.66602 39.9994 6.66602ZM34.332 51.6975L38.9426 46.3729L37.5527 42.4473L34.4277 41.3405L34.3314 51.6986L34.332 51.6975ZM44.5525 55.9731L55.9738 25.4982L40.1764 41.2956C40.1134 41.3577 40.0427 41.4114 39.9659 41.4553L39.5059 41.7219L44.5525 55.9731ZM54.5004 24.0251L24.0247 35.4453L38.2753 40.4931L38.5425 40.0341C38.5868 39.957 38.6409 39.8858 38.7034 39.8224L54.5004 24.0251Z" fill="#1BB045"/>
</svg>
