<svg width="24" height="24" viewBox="0 0 24 24" fill="none" xmlns="http://www.w3.org/2000/svg">
<path fill-rule="evenodd" clip-rule="evenodd" d="M11.059 1.52479C11.2686 1.2198 11.6149 1.0376 11.985 1.0376C12.355 1.0376 12.7014 1.2198 12.911 1.52479C14.0082 3.12128 15.6893 5.56749 15.6893 5.56749C15.6893 5.56749 18.5352 6.41045 20.3928 6.96056C20.7476 7.06564 21.0279 7.33872 21.1423 7.69072C21.2566 8.04263 21.1903 8.42834 20.965 8.72191C19.7857 10.2588 17.9788 12.6136 17.9788 12.6136C17.9788 12.6136 18.0565 15.5807 18.1073 17.5172C18.117 17.8872 17.9439 18.2382 17.6445 18.4558C17.3451 18.6733 16.9578 18.7294 16.609 18.6059C14.7829 17.9591 11.985 16.9683 11.985 16.9683C11.985 16.9683 9.18711 17.9591 7.36105 18.6059C7.01219 18.7294 6.62487 18.6733 6.32545 18.4558C6.02613 18.2382 5.853 17.8872 5.86271 17.5172C5.9135 15.5807 5.99125 12.6136 5.99125 12.6136C5.99125 12.6136 4.18433 10.2588 3.00491 8.72191C2.77965 8.42834 2.71332 8.04263 2.82774 7.69072C2.94208 7.33872 3.22244 7.06564 3.57723 6.96056C5.43467 6.41045 8.28069 5.56749 8.28069 5.56749C8.28069 5.56749 9.96177 3.12128 11.059 1.52479Z" fill="#FFD541"/>
<path fill-rule="evenodd" clip-rule="evenodd" d="M11.9875 9.15851C11.7077 9.15851 10.402 8.65694 10.402 6.81262C10.402 5.8608 11.0888 5.25244 11.9875 5.25244C12.8863 5.25244 13.573 5.8608 13.573 6.81262C13.573 8.65694 12.2673 9.15851 11.9875 9.15851Z" fill="#F5B102"/>
<path fill-rule="evenodd" clip-rule="evenodd" d="M9.6368 12.808C9.24121 12.7063 9.00004 12.3066 9.09442 11.9093C9.1497 11.6767 9.211 11.419 9.26611 11.1872C9.37217 10.7409 9.67689 10.3678 10.093 10.1747C10.4357 10.0156 10.784 9.854 10.784 9.854C10.784 9.854 10.932 9.95324 11.1241 10.0822C11.6463 10.4328 12.3288 10.4328 12.851 10.0822C13.0431 9.95324 13.191 9.854 13.191 9.854C13.191 9.854 13.5394 10.0156 13.8822 10.1747C14.2983 10.3678 14.6029 10.7409 14.709 11.1872C14.7626 11.4127 14.8221 11.6629 14.8762 11.8904C14.9224 12.0847 14.889 12.2893 14.7837 12.4589C14.6782 12.6286 14.5095 12.7491 14.3149 12.7937C14.0954 12.844 13.8448 12.9016 13.5889 12.9603C12.4225 13.2278 11.2091 13.2119 10.0502 12.9142C9.90584 12.8771 9.76597 12.8412 9.6368 12.808Z" fill="#F5B102"/>
<path fill-rule="evenodd" clip-rule="evenodd" d="M20.0414 22.0327C17.8838 20.6853 15.0628 19.8963 11.985 19.8963C8.90734 19.8963 6.08621 20.6853 3.92873 22.0327L3.83579 19.3189L1.49817 18.1405C4.31012 16.3846 7.97376 15.3076 11.985 15.3076C15.9962 15.3076 19.66 16.3846 22.4719 18.1405L20.2228 19.3384L20.0414 22.0327Z" fill="#F5B102"/>
</svg>
