<svg width="20" height="20" viewBox="0 0 20 20" fill="none" xmlns="http://www.w3.org/2000/svg">
<path fill-rule="evenodd" clip-rule="evenodd" d="M2.64427 10.4603L2.63081 16.7334C2.62958 17.2209 2.82312 17.6895 3.16795 18.0349C3.51216 18.3803 3.98011 18.5745 4.46825 18.5745H15.4905C15.978 18.5745 16.4453 18.381 16.7895 18.0361C17.1344 17.6919 17.3279 17.2246 17.3279 16.7371V10.4554C18.3985 10.0775 19.1666 9.05592 19.1666 7.85606C19.1666 7.14926 18.145 4.16708 17.6048 2.6665C17.35 1.92417 16.6517 1.425 15.8665 1.425C13.4576 1.425 6.60581 1.425 4.13996 1.425C3.33822 1.425 2.62897 1.945 2.38765 2.70938L0.947082 7.27176C0.738225 7.93324 0.819086 8.65168 1.17065 9.25007C1.49955 9.81049 2.02137 10.2441 2.64427 10.4603ZM16.1029 10.5951C15.3631 10.513 14.7114 10.1376 14.2667 9.58755C13.7614 10.2123 12.9885 10.6122 12.123 10.6122C11.2576 10.6122 10.4847 10.2123 9.97936 9.58755C9.47406 10.2123 8.70111 10.6122 7.83567 10.6122C6.97023 10.6122 6.19728 10.2123 5.69198 9.58755C5.24977 10.1339 4.603 10.5087 3.86863 10.5939L3.85577 16.7358C3.85577 16.8981 3.92008 17.0543 4.03461 17.1695C4.14976 17.2846 4.30533 17.3495 4.46825 17.3495H7.52943V14.8996C7.52943 13.8847 8.35199 13.0622 9.36688 13.0622H10.5918C11.6067 13.0622 12.4293 13.8847 12.4293 14.8996V17.3495H15.4905C15.6528 17.3495 15.8083 17.2852 15.9235 17.1701C16.0386 17.0555 16.1029 16.8994 16.1029 16.7371V10.5951ZM11.2043 17.3495H8.75439V14.8996C8.75439 14.5615 9.02879 14.2871 9.36688 14.2871H10.5918C10.9299 14.2871 11.2043 14.5615 11.2043 14.8996V17.3495ZM3.55564 3.07809C3.63649 2.8233 3.87292 2.64997 4.13996 2.64997H15.8665C16.1293 2.64997 16.3626 2.81778 16.4465 3.06645L16.4484 3.07196C16.9494 4.46107 17.9416 7.20316 17.9416 7.85606C17.9416 8.70129 17.2556 9.38727 16.4104 9.38727C15.5652 9.38727 14.8792 8.70129 14.8792 7.85606C14.8792 6.92877 13.6542 6.92877 13.6542 7.85606C13.6542 8.70129 12.9683 9.38727 12.123 9.38727C11.2778 9.38727 10.5918 8.70129 10.5918 7.85606C10.5918 6.93979 9.36688 6.93979 9.36688 7.85606C9.36688 8.70129 8.6809 9.38727 7.83567 9.38727C6.99045 9.38727 6.30447 8.70129 6.30447 7.85606C6.30447 6.93918 5.0795 6.93918 5.0795 7.85606C5.0795 8.70129 4.39352 9.38727 3.5483 9.38727C2.98543 9.38727 2.493 9.08287 2.22657 8.62963C2.0514 8.33074 2.01097 7.97121 2.11509 7.64047L3.55564 3.07809Z" fill="#919699"/>
</svg>
