<svg width="55" height="54" viewBox="0 0 55 54" fill="none" xmlns="http://www.w3.org/2000/svg">
<path d="M27.5002 0.333008C12.8068 0.333008 0.833496 12.3063 0.833496 26.9997C0.833496 41.693 12.8068 53.6663 27.5002 53.6663C42.1935 53.6663 54.1668 41.693 54.1668 26.9997C54.1668 12.3063 42.1935 0.333008 27.5002 0.333008ZM40.2468 20.8663L25.1268 35.9863C24.7535 36.3597 24.2468 36.573 23.7135 36.573C23.1802 36.573 22.6735 36.3597 22.3002 35.9863L14.7535 28.4397C13.9802 27.6663 13.9802 26.3863 14.7535 25.613C15.5268 24.8397 16.8068 24.8397 17.5802 25.613L23.7135 31.7463L37.4202 18.0397C38.1935 17.2663 39.4735 17.2663 40.2468 18.0397C41.0202 18.813 41.0202 20.0663 40.2468 20.8663Z" fill="#1BB045"/>
</svg>
