<svg width="24" height="24" viewBox="0 0 24 24" fill="none" xmlns="http://www.w3.org/2000/svg">
<path d="M16.5228 12.8762L15.1911 11.5445L18.7104 8.02517L19.1662 8.48092C19.4614 8.77604 19.958 8.7179 20.1747 8.35677L22.9092 3.79917C23.0614 3.54556 23.0214 3.22091 22.8123 3.01182L20.9892 1.18878C20.7801 0.979645 20.4554 0.939725 20.2019 1.09184L15.6443 3.82641C15.2846 4.04221 15.2241 4.53887 15.5201 4.83485L15.9759 5.2906L12.4565 8.80994L11.1249 7.47828C11.5936 5.72688 11.1155 3.82259 9.78972 2.49677C8.13135 0.838443 5.6488 0.575978 3.70734 1.62176C3.52798 1.7184 3.40487 1.8941 3.37526 2.09568C3.3457 2.29726 3.41316 2.50094 3.55724 2.64502L5.97615 5.06393C6.22749 5.31526 6.22749 5.72417 5.97615 5.97542C5.72481 6.22676 5.31595 6.2268 5.06461 5.97542L2.6457 3.55647C2.50162 3.41239 2.2979 3.34488 2.09637 3.37449C1.89479 3.40405 1.71908 3.52721 1.62244 3.70657C0.580616 5.64077 0.833542 8.12495 2.49754 9.7889C3.82039 11.1118 5.7237 11.5939 7.47905 11.1241L7.89905 11.544L1.94541 17.4978C0.68525 18.758 0.684477 20.7947 1.94541 22.0556C3.202 23.3122 5.24659 23.3123 6.50323 22.0556L12.4568 16.1019L12.8769 16.5219C12.4082 18.2733 12.8863 20.1776 14.212 21.5035C15.8704 23.1618 18.353 23.4243 20.2944 22.3785C20.4738 22.2819 20.5969 22.1062 20.6265 21.9046C20.6561 21.703 20.5886 21.4993 20.4445 21.3552L18.0256 18.9363C17.7743 18.685 17.7743 18.2761 18.0256 18.0248C18.277 17.7735 18.6859 17.7736 18.9372 18.0248L21.3561 20.4438C21.5001 20.5878 21.7038 20.6552 21.9054 20.6257C22.107 20.5962 22.2827 20.473 22.3793 20.2937C23.4212 18.3595 23.1683 15.8753 21.5043 14.2113C20.1814 12.8885 18.2781 12.4064 16.5228 12.8762ZM20.4336 2.45616L21.5449 3.56747L19.494 6.98562L17.0154 4.50707L20.4336 2.45616ZM16.8874 6.20214L17.7989 7.11363L14.2796 10.633L13.368 9.72148L16.8874 6.20214ZM5.59169 21.1442C4.83773 21.8981 3.61091 21.8981 2.85691 21.1442C2.10041 20.3877 2.09993 19.1664 2.85691 18.4094L8.8105 12.4556L11.5453 15.1904L5.59169 21.1442ZM21.58 18.8447L19.8487 17.1133C19.0948 16.3595 17.8681 16.3595 17.1141 17.1133C16.3602 17.8672 16.3602 19.094 17.1141 19.8479L18.8455 21.5793C17.53 21.9384 16.1162 21.5845 15.1236 20.592C14.0731 19.5415 13.7164 17.9578 14.2149 16.5574C14.2984 16.3229 14.2394 16.0614 14.0635 15.8855L8.11558 9.93758C7.94 9.762 7.67865 9.70249 7.44369 9.78611C6.04318 10.2846 4.45954 9.92787 3.40904 8.87741C2.4165 7.88487 2.06263 6.47105 2.42178 5.15563L4.15312 6.88696C4.907 7.64084 6.13372 7.6408 6.88769 6.88696C7.64157 6.13308 7.64157 4.90635 6.88769 4.15239L5.15635 2.42105C6.47173 2.06182 7.88564 2.41577 8.87818 3.40831C9.92868 4.45881 10.2854 6.0425 9.78688 7.44296C9.70343 7.67741 9.76239 7.93893 9.93835 8.11485L15.8862 14.0627C16.0622 14.2386 16.3237 14.2976 16.5581 14.2142C17.9585 13.7157 19.5422 14.0724 20.5927 15.1229C21.5853 16.1155 21.9392 17.5293 21.58 18.8447Z" fill="#676E72"/>
<path d="M9.38066 14.7494C9.12894 14.4977 8.72089 14.4977 8.46917 14.7494L4.53056 18.6882C4.27888 18.9399 4.27888 19.3479 4.53056 19.5997C4.78232 19.8514 5.19033 19.8513 5.44205 19.5997L9.38062 15.6609C9.6323 15.4092 9.6323 15.0011 9.38066 14.7494Z" fill="#676E72"/>
</svg>
