<svg width="16" height="16" viewBox="0 0 16 16" fill="none" xmlns="http://www.w3.org/2000/svg">
<path d="M8.00016 1.33333C4.32683 1.33333 1.3335 4.32666 1.3335 8C1.3335 11.6733 4.32683 14.6667 8.00016 14.6667C11.6735 14.6667 14.6668 11.6733 14.6668 8C14.6668 4.32666 11.6735 1.33333 8.00016 1.33333ZM11.1868 6.46666L7.40683 10.2467C7.3135 10.34 7.18683 10.3933 7.0535 10.3933C6.92016 10.3933 6.7935 10.34 6.70016 10.2467L4.8135 8.35999C4.62016 8.16666 4.62016 7.84666 4.8135 7.65333C5.00683 7.45999 5.32683 7.45999 5.52016 7.65333L7.0535 9.18666L10.4802 5.76C10.6735 5.56666 10.9935 5.56666 11.1868 5.76C11.3802 5.95333 11.3802 6.26666 11.1868 6.46666Z" fill="#A4A4AE"/>
</svg>
