<svg width="16" height="16" viewBox="0 0 16 16" fill="none" xmlns="http://www.w3.org/2000/svg">
<path d="M8.65377 10.68H7.48043C6.63376 10.68 5.94043 9.96665 5.94043 9.09331C5.94043 8.81998 6.1671 8.59331 6.44043 8.59331C6.71376 8.59331 6.94043 8.81998 6.94043 9.09331C6.94043 9.41998 7.18043 9.67998 7.48043 9.67998H8.65377C8.87377 9.67998 9.06042 9.47998 9.06042 9.23331C9.06042 8.91998 8.9871 8.87998 8.77376 8.80665L6.90043 8.15332C6.26043 7.92665 5.9471 7.47998 5.9471 6.77998C5.9471 5.97998 6.57376 5.33331 7.35376 5.33331H8.5271C9.37377 5.33331 10.0671 6.04664 10.0671 6.91998C10.0671 7.19331 9.84043 7.41998 9.5671 7.41998C9.29376 7.41998 9.0671 7.19331 9.0671 6.91998C9.0671 6.59331 8.8271 6.33331 8.5271 6.33331H7.35376C7.13376 6.33331 6.9471 6.53331 6.9471 6.77998C6.9471 7.09331 7.02043 7.13331 7.23376 7.20664L9.1071 7.85998C9.7471 8.08665 10.0604 8.53331 10.0604 9.23331C10.0538 10.0266 9.4271 10.68 8.65377 10.68Z" fill="#202C38"/>
<path d="M8 11.3C7.72667 11.3 7.5 11.0733 7.5 10.8V5.20001C7.5 4.92668 7.72667 4.70001 8 4.70001C8.27333 4.70001 8.5 4.92668 8.5 5.20001V10.8C8.5 11.0733 8.27333 11.3 8 11.3Z" fill="#202C38"/>
<path d="M7.99967 15.1666C4.04634 15.1666 0.833008 11.9533 0.833008 7.99998C0.833008 4.04665 4.04634 0.833313 7.99967 0.833313C11.953 0.833313 15.1663 4.04665 15.1663 7.99998C15.1663 11.9533 11.953 15.1666 7.99967 15.1666ZM7.99967 1.83331C4.59967 1.83331 1.83301 4.59998 1.83301 7.99998C1.83301 11.4 4.59967 14.1666 7.99967 14.1666C11.3997 14.1666 14.1663 11.4 14.1663 7.99998C14.1663 4.59998 11.3997 1.83331 7.99967 1.83331Z" fill="#202C38"/>
</svg>
