<svg width="20" height="20" viewBox="0 0 20 20" fill="none" xmlns="http://www.w3.org/2000/svg">
<g clip-path="url(#clip0_2749_7347)">
<path d="M3.76825 16.7208H3.47694C3.16988 16.7208 2.92188 16.9688 2.92188 17.2758C2.92188 17.5829 3.16988 17.8309 3.47694 17.8309H3.76825C4.07531 17.8309 4.32332 17.5829 4.32332 17.2758C4.32332 16.9688 4.07531 16.7208 3.76825 16.7208Z" fill="#919699"/>
<path d="M7.51304 8.33333H5.55507C5.24801 8.33333 5 8.58134 5 8.88839C5 9.19545 5.24801 9.44346 5.55507 9.44346H7.51304C7.8201 9.44346 8.06811 9.19545 8.06811 8.88839C8.06811 8.58134 7.8201 8.33333 7.51304 8.33333Z" fill="#919699"/>
<path d="M6.91376 16.7208H6.62245C6.31539 16.7208 6.06738 16.9688 6.06738 17.2758C6.06738 17.5829 6.31539 17.8309 6.62245 17.8309H6.91376C7.22082 17.8309 7.46883 17.5829 7.46883 17.2758C7.46883 16.9688 7.22082 16.7208 6.91376 16.7208Z" fill="#919699"/>
<path d="M10.059 16.7208H9.76771C9.46459 16.7208 9.21265 16.9688 9.21265 17.2758C9.21265 17.5829 9.46065 17.8309 9.76771 17.8309H10.059C10.3661 17.8309 10.6141 17.5829 10.6141 17.2758C10.6141 16.9688 10.3661 16.7208 10.059 16.7208Z" fill="#919699"/>
<path d="M13.2084 16.7208H12.9171C12.6101 16.7208 12.3621 16.9688 12.3621 17.2758C12.3621 17.5829 12.6101 17.8309 12.9171 17.8309H13.2084C13.5155 17.8309 13.7635 17.5829 13.7635 17.2758C13.7635 16.9688 13.5155 16.7208 13.2084 16.7208Z" fill="#919699"/>
<path d="M18.6648 10.249V9.64665C19.4364 9.41045 19.9993 8.69004 19.9993 7.83973C19.9993 6.99729 19.4443 6.28476 18.6845 6.04069V0.556954C18.6845 0.0530641 18.0389 -0.2225 17.6807 0.226276L10.327 9.41955V7.63479C10.327 7.48913 10.268 7.34741 10.1656 7.24113L7.90205 4.97756C7.7997 4.87521 7.65798 4.81616 7.50839 4.81616H2.48524C2.17818 4.81616 1.93017 5.06417 1.93017 5.37122V14.6698C0.816104 15.0123 0.0012207 16.0516 0.0012207 17.2758C0.0012207 18.7757 1.22551 20 2.72537 20H13.9566C15.4604 20 16.6807 18.7757 16.6807 17.2758C16.6807 15.776 15.4565 14.5517 13.9566 14.5517H10.327V11.2973L17.5744 2.25364V6.02888C16.791 6.26114 16.2202 6.98548 16.2202 7.83973C16.2202 8.69004 16.7831 9.41045 17.5547 9.64665V10.7174C17.5547 11.0245 17.8027 11.2725 18.1097 11.2725C18.4837 11.2725 18.7908 11.5756 18.7908 11.9535C18.7908 12.3314 18.4877 12.6346 18.1097 12.6346C17.7988 12.6346 17.5311 12.4259 17.4523 12.1267C17.3736 11.8275 17.0705 11.6504 16.7752 11.7291C16.48 11.8079 16.2989 12.111 16.3776 12.4062C16.5823 13.1936 17.2949 13.7447 18.1097 13.7447C19.0978 13.7447 19.9009 12.9416 19.9009 11.9535C19.9009 11.1583 19.3813 10.4851 18.6648 10.249ZM3.0403 5.92235H7.27219L9.21295 7.86311V14.5478H3.0403V5.92235ZM13.9566 15.6618C14.8463 15.6618 15.5706 16.3862 15.5706 17.2758C15.5706 18.1655 14.8463 18.8899 13.9566 18.8899H2.72537C1.83569 18.8899 1.11135 18.1655 1.11135 17.2758C1.11135 16.3862 1.83569 15.6618 2.72537 15.6618H13.9566ZM18.1097 8.61918C17.6807 8.61918 17.3303 8.26882 17.3303 7.83973C17.3303 7.41064 17.6807 7.06028 18.1097 7.06028C18.5388 7.06028 18.8892 7.41064 18.8892 7.83973C18.8892 8.26882 18.5388 8.61918 18.1097 8.61918Z" fill="#919699"/>
</g>
<defs>
<clipPath id="clip0_2749_7347">
<rect width="20" height="20" fill="white"/>
</clipPath>
</defs>
</svg>
